<svg xmlns="http://www.w3.org/2000/svg" version="1.1" xmlns:xlink="http://www.w3.org/1999/xlink" xmlns:svgjs="http://svgjs.com/svgjs" width="100%" height="800"><svg version="1.1" id="SvgjsSvg1000" xmlns="http://www.w3.org/2000/svg" xmlns:xlink="http://www.w3.org/1999/xlink" x="0px" y="0px" width="100%" viewBox="0 0 800 800" enable-background="new 0 0 800 800" xml:space="preserve">
<path fill="#FFFFFF" opacity="1.000000" stroke="none" d="
M436.000000,801.000000 
	C290.666656,801.000000 145.833328,801.000000 1.000000,801.000000 
	C1.000000,534.333313 1.000000,267.666656 1.000000,1.000000 
	C267.666656,1.000000 534.333313,1.000000 801.000000,1.000000 
	C801.000000,267.666656 801.000000,534.333313 801.000000,801.000000 
	C679.500000,801.000000 558.000000,801.000000 436.000000,801.000000 
M610.955200,597.138733 
	C610.922852,595.089966 610.890503,593.041260 610.988159,590.072632 
	C611.019897,587.909607 611.320557,585.709595 611.028625,583.591187 
	C610.378784,578.875244 612.228333,576.415527 616.490906,574.000977 
	C631.327026,565.597168 631.686462,544.090027 617.321533,534.907043 
	C606.785156,528.171509 596.761353,530.156128 587.737366,537.565674 
	C584.995056,536.605042 582.521729,535.738586 579.846252,534.233582 
	C565.495056,526.354858 551.143921,518.476196 536.195007,510.144928 
	C532.199219,507.884216 528.159058,505.696014 524.244446,503.302490 
	C523.447632,502.815308 522.585388,501.452667 522.732849,500.680634 
	C522.879578,499.912415 524.190430,499.239929 525.117920,498.784088 
	C525.992737,498.354095 527.033020,498.260773 528.908569,498.114410 
	C544.754944,496.551941 560.607483,495.048553 576.445435,493.404388 
	C585.656860,492.448120 594.844849,491.265991 604.914734,490.247223 
	C608.171387,490.264832 611.295410,488.892548 613.649963,493.400574 
	C618.208740,502.128632 626.035889,506.148926 635.988525,505.194794 
	C646.120239,504.223450 653.075500,498.787384 656.062744,489.096313 
	C659.028992,479.473297 656.687805,470.887939 648.835510,464.380188 
	C646.165222,462.167114 645.807373,460.313263 646.840637,457.184540 
	C648.813477,451.210632 650.284546,445.070984 652.354980,438.372681 
	C654.237671,432.174957 656.318665,426.028046 657.925232,419.759521 
	C658.820740,416.265320 660.080383,414.797211 664.128967,414.517212 
	C682.845825,413.222870 695.513489,397.616486 692.861267,379.777985 
	C690.840576,366.186737 679.713867,355.904510 665.284912,354.294556 
	C652.629456,352.882507 639.573975,361.233521 634.690674,373.864410 
	C629.891113,386.278656 633.996155,400.960144 645.029602,408.497101 
	C648.648499,410.969238 649.149292,413.069977 647.913879,416.951538 
	C644.545837,427.533661 641.586365,438.245789 638.113708,449.490997 
	C636.674133,454.364868 636.173523,460.091553 628.125427,459.735413 
	C620.621704,461.481384 614.641479,465.893860 612.626099,473.066559 
	C610.874512,479.300598 607.105774,479.596313 602.243042,480.087891 
	C579.816345,482.354950 557.406921,484.792206 534.138977,487.084656 
	C532.166748,487.327515 530.180542,487.490082 528.225220,487.830048 
	C524.213074,488.527588 521.402649,488.060699 519.089783,483.688324 
	C515.366455,476.649384 508.723145,472.349762 500.726562,473.068909 
	C493.945129,473.678772 489.823395,471.648682 486.997986,465.095093 
	C484.064453,460.348877 481.059723,455.644958 478.210358,450.848755 
	C468.378174,434.298889 458.600250,417.716827 448.923889,401.353760 
	C446.079620,403.780457 443.502991,405.978790 440.506897,408.535034 
	C453.073090,429.175934 466.104675,450.581329 479.273468,472.657257 
	C480.512756,474.790924 481.752075,476.924591 483.007355,479.085785 
	C481.985626,480.428314 481.031006,481.560974 480.208710,482.782715 
	C474.236786,491.655334 474.801483,502.993256 481.582947,510.971558 
	C488.350739,518.933777 500.539856,522.683350 508.931030,516.834717 
	C516.739502,511.392151 522.175354,513.451599 528.489929,517.796448 
	C528.882568,518.066650 529.423523,518.121460 530.308838,518.793030 
	C545.217102,526.835754 560.125305,534.878479 575.477051,543.443176 
	C577.598267,544.679138 579.719421,545.915161 581.878601,547.173218 
	C579.438965,558.183655 581.887695,567.959656 591.594910,573.313477 
	C598.177795,576.944153 602.345093,580.208679 600.731750,588.672668 
	C600.769104,589.096130 600.806396,589.519531 600.481201,590.666626 
	C600.471252,594.439148 600.461304,598.211731 600.236694,602.898865 
	C600.113464,615.389282 599.729614,627.885315 599.998352,640.367310 
	C600.102173,645.192749 598.378113,646.786377 593.937439,648.033142 
	C582.134155,651.347290 574.661621,659.682922 571.429504,671.218628 
	C568.245911,682.581482 570.583008,693.156189 579.069763,702.694519 
	C590.807007,714.878662 607.594360,717.635559 621.402222,709.646484 
	C635.523193,701.476440 641.795105,685.252258 636.666931,669.173889 
	C635.616211,665.879639 635.956665,664.224609 638.848938,662.231018 
	C652.281128,652.972595 665.595276,643.538574 678.807373,633.968201 
	C681.684753,631.883911 683.628906,631.717407 686.601013,633.936279 
	C694.423828,639.776306 703.341492,641.968811 713.008484,639.941650 
	C726.834839,637.042419 735.880310,628.637817 739.591492,615.104309 
	C743.264526,601.709717 738.012634,587.438354 727.244751,579.528992 
	C715.107788,570.613831 698.416321,570.397095 686.653992,579.001770 
	C674.196716,588.114807 669.384521,603.831360 674.851196,618.555725 
	C676.045166,621.771790 675.676941,623.416138 672.747070,625.430115 
	C659.165771,634.765564 645.756653,644.353271 632.361328,653.955872 
	C630.097412,655.578735 628.165771,656.458923 625.570618,653.522156 
	C622.103943,651.689453 618.810364,648.971436 615.126160,648.251038 
	C610.643494,647.374451 610.017700,645.231445 610.112732,641.426086 
	C610.449402,627.951660 610.569946,614.471863 610.917175,600.254639 
	C610.879517,599.504822 610.841919,598.754944 610.955200,597.138733 
M410.835266,407.476379 
	C410.559387,407.338776 410.283478,407.201141 409.103149,406.887604 
	C406.310669,406.887604 403.518219,406.887604 400.776947,406.887604 
	C400.497528,407.708679 400.205292,408.165894 400.206055,408.622620 
	C400.246552,433.078339 400.311707,457.534027 400.182739,482.909149 
	C400.167694,496.400208 400.053406,509.892487 400.218262,523.381348 
	C400.252838,526.207153 399.273712,527.544800 396.816620,528.571838 
	C385.912750,533.129456 380.855408,541.919006 382.705627,553.459595 
	C383.165314,556.326965 382.244232,557.686646 379.931122,558.998352 
	C372.994751,562.931885 366.149780,567.027466 359.288361,571.092224 
	C345.878845,579.036011 332.482361,587.001770 319.175659,594.901917 
	C310.432190,586.660156 302.819214,584.162537 294.141205,586.512878 
	C282.237671,589.736877 274.993103,601.148132 277.094757,613.363831 
	C279.124695,625.162476 289.913879,633.050415 302.725555,632.102417 
	C314.159210,631.256287 323.689178,621.123108 323.339844,609.148621 
	C323.227173,605.285706 324.750885,603.906128 327.437134,602.308411 
	C344.322876,592.265381 361.162842,582.145386 378.659180,571.964844 
	C379.522278,571.342896 380.385406,570.721008 381.786346,570.032593 
	C382.199799,569.713135 382.613281,569.393616 383.669556,568.978516 
	C384.536682,568.355042 385.403778,567.731567 386.844940,567.027710 
	C387.548462,566.723633 388.251984,566.419617 389.318695,566.676331 
	C396.686615,573.239380 405.975037,576.220398 414.039368,571.111084 
	C422.064087,566.026794 426.885101,569.089905 432.710663,573.186279 
	C433.376678,573.654602 434.178925,573.929138 435.294830,574.823730 
	C446.193542,581.756470 457.092255,588.689148 467.908081,595.569153 
	C464.353699,606.072632 464.145233,615.874207 470.000977,625.908569 
	C478.742310,640.864075 496.346252,646.971191 512.315369,640.588013 
	C527.801270,634.398071 536.563843,617.383850 532.684692,601.037048 
	C528.868835,584.957153 513.646851,573.970520 496.197571,575.173584 
	C488.596252,576.047424 481.820587,578.782837 476.262939,584.159119 
	C474.377960,585.982605 472.974823,586.433655 470.358521,584.692627 
	C460.726654,578.283142 450.800293,572.316223 440.453247,565.707031 
	C437.179382,563.600037 433.985382,561.352051 430.603516,559.435730 
	C428.352692,558.160339 428.026489,556.810364 428.456177,554.252319 
	C430.062103,544.691833 427.254700,536.712463 418.535950,530.528198 
	C411.154572,528.867310 410.619781,523.683472 410.803711,517.229309 
	C411.185760,503.827545 410.807648,490.404114 410.888550,476.063965 
	C410.853241,453.370483 410.817932,430.677002 410.835266,407.476379 
M352.860565,346.836914 
	C354.893158,350.238312 356.925720,353.639740 359.056458,357.738708 
	C361.702240,362.137878 364.348053,366.537048 367.105255,371.635376 
	C369.160675,375.092316 371.216095,378.549286 373.441681,382.666626 
	C375.300323,388.101044 379.038330,390.067474 384.693451,389.225922 
	C387.741486,388.772339 390.893250,389.016022 394.921448,389.123779 
	C406.734558,389.153748 418.551178,389.032745 430.358521,389.308868 
	C433.747253,389.388123 435.371277,388.067047 436.917938,385.330292 
	C444.521301,371.876373 452.062256,358.375122 460.156219,345.217194 
	C462.937988,340.694977 462.638214,337.444122 459.066284,333.229675 
	C456.061279,328.135864 453.056305,323.042084 449.933319,317.254639 
	C447.639099,313.496185 445.344879,309.737762 442.941223,305.282288 
	C440.660034,301.508301 438.378845,297.734283 435.926941,293.161774 
	C434.689758,292.325775 433.476654,290.816101 432.211182,290.770813 
	C426.827820,290.578003 421.428955,290.818970 415.371368,290.620361 
	C404.437958,290.593719 393.501007,290.717560 382.573151,290.457520 
	C378.829834,290.368439 376.650726,291.367950 374.736145,294.820099 
	C367.415466,308.019714 359.925049,321.139343 352.005066,333.984955 
	C349.129028,338.649719 348.744080,342.287262 352.860565,346.836914 
M192.497696,624.891113 
	C192.612274,630.874634 192.904343,636.863831 192.715363,642.837769 
	C192.668716,644.312378 191.401611,646.377258 190.105988,647.073242 
	C184.814331,649.915466 179.294220,652.332458 173.139313,655.246399 
	C168.295944,651.763367 162.538498,647.546143 156.700974,643.442810 
	C147.490524,636.968628 138.226288,630.570862 128.357773,623.818054 
	C128.284744,622.148682 127.994011,620.454712 128.179199,618.814514 
	C128.751572,613.744446 130.336716,608.645691 130.041458,603.645874 
	C128.901627,584.345459 112.128159,570.984009 91.944977,572.965942 
	C76.426788,574.489746 59.599686,589.156738 62.853477,612.481506 
	C65.248001,629.646545 82.831604,643.179443 100.681999,639.974792 
	C107.769951,638.702332 114.405922,634.912292 121.247665,632.268433 
	C121.104782,631.842224 120.961906,631.416016 120.819023,630.989807 
	C122.112053,631.705383 123.405083,632.421021 125.066170,633.719177 
	C138.162155,643.162903 151.206802,652.679321 164.395416,661.991882 
	C167.183746,663.960632 167.301224,665.556946 166.543564,668.892578 
	C165.289932,674.411621 165.557358,680.276123 165.132904,686.750122 
	C170.606873,707.067627 188.264175,717.962097 207.539032,712.914368 
	C222.646210,708.958069 233.664688,693.943176 232.712738,678.610046 
	C231.695267,662.221130 219.479111,648.670959 203.768112,646.019714 
	C203.459549,636.679138 203.151001,627.338501 202.970078,617.068481 
	C202.782013,605.625000 202.733582,594.176453 202.323456,582.740906 
	C202.195297,579.167114 202.749146,577.273315 206.641022,575.978882 
	C217.319870,572.426819 223.225189,561.945435 221.445099,550.128296 
	C222.146332,548.580627 222.432922,546.459045 223.628326,545.595276 
	C226.914230,543.221069 230.581329,541.374390 234.800888,539.134216 
	C251.243896,530.055725 267.686890,520.977234 284.040039,511.948334 
	C296.968811,521.201843 308.592957,521.505310 317.677704,512.959167 
	C327.022034,504.168884 327.453827,492.825958 318.823822,479.419861 
	C319.436035,478.384094 320.068665,477.235046 320.773895,476.132416 
	C334.135620,455.241821 347.157898,434.120819 361.067505,413.601379 
	C365.786926,406.639282 366.253845,401.336151 360.074554,395.363098 
	C359.047546,396.834839 357.865509,398.410278 356.806305,400.064423 
	C342.177338,422.909302 327.493378,445.719696 313.026184,468.666687 
	C310.841522,472.131866 308.880127,473.698029 304.425781,473.055145 
	C295.053101,471.702362 287.059479,475.173584 282.311951,483.390594 
	C279.887177,487.587402 277.303009,488.908966 272.161804,488.032227 
	C270.672058,487.880829 269.184174,487.707947 267.692322,487.581207 
	C250.126358,486.088837 232.559830,484.603424 214.177872,482.920990 
	C207.574631,482.284302 200.980804,481.497589 194.363647,481.082947 
	C191.623566,480.911255 190.505890,480.071167 189.669739,477.291748 
	C186.486008,466.708954 177.700241,460.589325 166.269958,460.711304 
	C165.308701,457.645691 164.297302,454.594727 163.394867,451.511871 
	C159.527588,438.300812 155.692368,425.080322 151.810760,411.743988 
	C153.477753,410.594910 154.998276,409.612579 156.449127,408.536316 
	C167.458206,400.369720 171.480515,385.489105 166.130661,372.796997 
	C160.924332,360.445343 147.574707,352.653320 134.813599,354.517578 
	C118.535370,356.895599 107.396790,369.975464 108.074211,385.917206 
	C108.729111,401.328766 121.030708,413.612762 137.239517,414.489502 
	C140.758865,414.679840 142.057999,415.797943 142.943283,418.993439 
	C146.578812,432.116180 150.388260,445.192688 154.316254,458.231201 
	C155.306595,461.518524 155.214493,463.811432 152.242538,466.238190 
	C146.096313,471.256836 143.136215,477.884064 144.112045,486.765381 
	C146.545731,498.069702 153.600876,505.430725 163.419769,506.910248 
	C173.981232,508.501617 182.672531,503.845154 188.609558,493.817413 
	C189.329208,492.601959 191.594482,491.642151 193.116394,491.679016 
	C198.748413,491.815552 204.369125,492.419495 210.814560,493.032135 
	C230.543594,494.711121 250.272644,496.390106 270.721130,498.395477 
	C271.704285,498.547760 272.718811,498.594421 273.663788,498.875214 
	C275.414154,499.395294 277.123840,500.052338 278.850494,500.652405 
	C277.495880,502.061279 276.371124,503.861603 274.748627,504.814331 
	C265.455963,510.271179 256.045074,515.526672 245.996506,520.972656 
	C235.864487,526.546387 225.732468,532.120117 215.567352,537.712036 
	C214.491898,536.951660 213.553772,536.279480 212.606705,535.620178 
	C200.780640,527.387085 185.498306,530.455688 178.402267,542.486572 
	C171.422729,554.319946 175.951416,568.879395 188.600784,575.449951 
	C189.868256,576.108337 190.942627,577.138367 191.958481,578.923767 
	C191.969574,581.073975 191.952545,583.224792 191.996353,585.374329 
	C192.258865,598.255005 192.535370,611.135254 192.497696,624.891113 
M504.839508,259.061646 
	C504.839508,242.164230 504.839508,225.266830 504.839508,208.502167 
	C532.306946,202.142105 539.096130,174.946793 529.204895,158.195969 
	C520.938782,145.338425 509.497070,139.068222 493.232086,141.174698 
	C488.469421,143.402161 483.706726,145.629623 478.305664,148.069504 
	C476.756561,149.670700 475.207428,151.271912 473.003662,152.726761 
	C462.712708,146.748520 452.494873,140.638229 442.085846,134.873199 
	C438.996704,133.162277 438.540833,131.328064 439.163818,128.089020 
	C441.975220,113.471764 434.880554,98.938225 421.821655,91.969406 
	C408.536438,84.879784 392.245026,87.075356 381.669617,97.658691 
	C371.701996,107.633751 369.259552,119.647545 373.057404,133.321594 
	C355.847534,143.832855 338.724335,154.291183 321.825531,164.612457 
	C321.049744,164.147537 320.726593,164.018677 320.485077,163.799789 
	C312.218597,156.307068 302.795135,154.582870 292.778839,159.304489 
	C283.712402,163.578369 278.910828,171.286179 279.136383,181.349213 
	C279.386078,192.490128 285.268250,199.944031 295.604858,204.118835 
	C296.806061,204.603973 298.079193,206.716217 298.086609,208.080811 
	C298.196136,228.236420 298.100250,248.393188 298.025635,268.549561 
	C298.024017,268.984100 297.698029,269.417450 297.550629,269.783508 
	C278.355835,274.175201 269.910767,288.621216 269.238892,302.348785 
	C268.537750,316.673553 277.732727,330.189453 291.452271,335.268097 
	C307.051056,341.042358 320.798279,336.125702 333.447845,320.248474 
	C339.889526,321.732178 341.312683,320.648743 343.643951,312.392853 
	C341.416626,311.463409 339.175476,310.528198 337.185089,309.697632 
	C338.728668,288.166656 328.931213,275.135315 308.943939,269.464752 
	C308.943939,248.690933 308.882812,228.208908 309.081451,207.729416 
	C309.094696,206.363754 310.795959,204.390274 312.190887,203.761169 
	C323.156921,198.815613 328.812286,189.023727 327.402954,177.247162 
	C327.240326,175.888290 327.718964,173.669281 328.667084,173.077438 
	C345.019012,162.870193 361.491333,152.855927 378.080750,142.711670 
	C385.643036,151.380890 394.605835,156.222961 406.131622,156.075684 
	C417.660187,155.928375 426.378754,150.641357 433.620361,142.110153 
	C442.143585,147.115891 450.281860,152.350616 458.843231,156.764709 
	C464.611084,159.738556 468.941437,162.682159 465.755951,170.730194 
	C463.863129,185.209244 471.969116,199.675201 485.445068,205.601593 
	C488.225311,206.589462 491.005554,207.577316 494.310791,208.751724 
	C494.310791,227.425827 494.310791,246.205444 494.130371,265.907776 
	C494.115295,272.899902 493.970367,279.895294 494.147522,286.882538 
	C494.220947,289.777191 493.351227,291.165375 490.549500,292.358948 
	C481.673492,296.139954 476.695282,303.087097 476.128662,312.771667 
	C475.453430,324.312805 483.809082,334.636719 495.212402,336.779449 
	C506.559204,338.911499 517.954041,332.206512 521.685974,321.201721 
	C525.410950,310.217438 520.509277,297.847900 509.819458,293.087585 
	C505.718689,291.261444 504.664642,289.119324 504.806641,284.935669 
	C505.088562,276.629822 504.759766,268.303253 504.839508,259.061646 
z"></path>
<path fill="#11B0CB" opacity="1.000000" stroke="none" d="
M478.944061,147.857071 
	C483.706726,145.629623 488.469421,143.402161 493.607849,141.552200 
	C491.104889,145.414642 488.285004,148.950302 485.333466,152.372452 
	C481.014954,157.379547 476.760712,162.460846 472.136627,167.174622 
	C470.671448,168.668167 468.112091,169.088303 466.053436,169.999664 
	C468.941437,162.682159 464.611084,159.738556 458.843231,156.764709 
	C450.281860,152.350616 442.143585,147.115891 433.620361,142.110153 
	C426.378754,150.641357 417.660187,155.928375 406.131622,156.075684 
	C394.605835,156.222961 385.643036,151.380890 378.080750,142.711670 
	C361.491333,152.855927 345.019012,162.870193 328.667084,173.077438 
	C327.718964,173.669281 327.240326,175.888290 327.402954,177.247162 
	C328.812286,189.023727 323.156921,198.815613 312.190887,203.761169 
	C310.795959,204.390274 309.094696,206.363754 309.081451,207.729416 
	C308.882812,228.208908 308.943939,248.690933 308.943939,269.464752 
	C328.931213,275.135315 338.728668,288.166656 337.185089,309.697632 
	C339.175476,310.528198 341.416626,311.463409 343.643951,312.392853 
	C341.312683,320.648743 339.889526,321.732178 333.447845,320.248474 
	C320.798279,336.125702 307.051056,341.042358 291.452271,335.268097 
	C277.732727,330.189453 268.537750,316.673553 269.238892,302.348785 
	C269.910767,288.621216 278.355835,274.175201 297.550629,269.783508 
	C297.698029,269.417450 298.024017,268.984100 298.025635,268.549561 
	C298.100250,248.393188 298.196136,228.236420 298.086609,208.080811 
	C298.079193,206.716217 296.806061,204.603973 295.604858,204.118835 
	C285.268250,199.944031 279.386078,192.490128 279.136383,181.349213 
	C278.910828,171.286179 283.712402,163.578369 292.778839,159.304489 
	C302.795135,154.582870 312.218597,156.307068 320.485077,163.799789 
	C320.726593,164.018677 321.049744,164.147537 321.825531,164.612457 
	C338.724335,154.291183 355.847534,143.832855 373.057404,133.321594 
	C369.259552,119.647545 371.701996,107.633751 381.669617,97.658691 
	C392.245026,87.075356 408.536438,84.879784 421.821655,91.969406 
	C434.880554,98.938225 441.975220,113.471764 439.163818,128.089020 
	C438.540833,131.328064 438.996704,133.162277 442.085846,134.873199 
	C452.494873,140.638229 462.712708,146.748520 473.775940,152.835388 
	C478.937164,153.774796 479.334381,151.156204 478.944061,147.857071 
M469.356964,156.675079 
	C470.038422,156.947281 470.719910,157.219498 471.401337,157.491714 
	C471.470612,156.920654 471.539886,156.349594 471.609192,155.778549 
	C470.948395,155.880325 470.287567,155.982101 469.356964,156.675079 
z"></path>
<path fill="#60BFB1" opacity="1.000000" stroke="none" d="
M625.975098,654.104126 
	C628.165771,656.458923 630.097412,655.578735 632.361328,653.955872 
	C645.756653,644.353271 659.165771,634.765564 672.747070,625.430115 
	C675.676941,623.416138 676.045166,621.771790 674.851196,618.555725 
	C669.384521,603.831360 674.196716,588.114807 686.653992,579.001770 
	C698.416321,570.397095 715.107788,570.613831 727.244751,579.528992 
	C738.012634,587.438354 743.264526,601.709717 739.591492,615.104309 
	C735.880310,628.637817 726.834839,637.042419 713.008484,639.941650 
	C703.341492,641.968811 694.423828,639.776306 686.601013,633.936279 
	C683.628906,631.717407 681.684753,631.883911 678.807373,633.968201 
	C665.595276,643.538574 652.281128,652.972595 638.848938,662.231018 
	C635.956665,664.224609 635.616211,665.879639 636.666931,669.173889 
	C641.795105,685.252258 635.523193,701.476440 621.402222,709.646484 
	C607.594360,717.635559 590.807007,714.878662 579.291992,702.337280 
	C580.429993,701.605225 581.579041,701.464294 582.226013,700.819580 
	C589.577087,693.493347 597.191895,686.388916 604.026489,678.602234 
	C608.560791,673.436279 614.734680,670.306885 618.907654,664.410889 
	C621.262573,661.083557 623.635864,657.559143 625.975098,654.104126 
z"></path>
<path fill="#36B7C0" opacity="1.000000" stroke="none" d="
M383.026733,569.074158 
	C382.613281,569.393616 382.199799,569.713135 381.139404,570.039673 
	C379.667603,570.714722 378.842773,571.382812 378.017944,572.050842 
	C361.162842,582.145386 344.322876,592.265381 327.437134,602.308411 
	C324.750885,603.906128 323.227173,605.285706 323.339844,609.148621 
	C323.689178,621.123108 314.159210,631.256287 302.725555,632.102417 
	C289.913879,633.050415 279.124695,625.162476 277.094757,613.363831 
	C274.993103,601.148132 282.237671,589.736877 294.141205,586.512878 
	C302.819214,584.162537 310.432190,586.660156 319.175659,594.901917 
	C332.482361,587.001770 345.878845,579.036011 359.288361,571.092224 
	C366.149780,567.027466 372.994751,562.931885 379.931122,558.998352 
	C382.244232,557.686646 383.165314,556.326965 382.705627,553.459595 
	C380.855408,541.919006 385.912750,533.129456 396.816620,528.571838 
	C399.273712,527.544800 400.252838,526.207153 400.218262,523.381348 
	C400.053406,509.892487 400.167694,496.400208 400.619873,482.441498 
	C404.285370,480.312439 407.513672,478.651001 410.742004,476.989594 
	C410.807648,490.404114 411.185760,503.827545 410.803711,517.229309 
	C410.619781,523.683472 411.154572,528.867310 418.759705,531.188110 
	C418.825165,532.811951 419.011200,534.109253 418.452911,534.685974 
	C414.708282,538.553894 410.653656,542.127197 406.987854,546.064514 
	C400.863525,552.642456 394.954895,559.421265 388.955505,566.115540 
	C388.251984,566.419617 387.548462,566.723633 386.176636,567.039673 
	C384.681122,567.725830 383.853943,568.400024 383.026733,569.074158 
z"></path>
<path fill="#1AB2C7" opacity="1.000000" stroke="none" d="
M124.698105,633.136597 
	C123.405083,632.421021 122.112053,631.705383 120.819023,630.989807 
	C120.961906,631.416016 121.104782,631.842224 121.247665,632.268433 
	C114.405922,634.912292 107.769951,638.702332 100.681999,639.974792 
	C82.831604,643.179443 65.248001,629.646545 62.853477,612.481506 
	C59.599686,589.156738 76.426788,574.489746 91.944977,572.965942 
	C112.128159,570.984009 128.901627,584.345459 130.041458,603.645874 
	C130.336716,608.645691 128.751572,613.744446 128.179199,618.814514 
	C127.994011,620.454712 128.284744,622.148682 128.624237,624.346497 
	C128.258835,626.630737 127.752708,628.446838 126.950783,630.121155 
	C126.419090,631.231262 125.463783,632.138550 124.698105,633.136597 
z"></path>
<path fill="#10B0CB" opacity="1.000000" stroke="none" d="
M144.198410,485.992676 
	C143.136215,477.884064 146.096313,471.256836 152.242538,466.238190 
	C155.214493,463.811432 155.306595,461.518524 154.316254,458.231201 
	C150.388260,445.192688 146.578812,432.116180 142.943283,418.993439 
	C142.057999,415.797943 140.758865,414.679840 137.239517,414.489502 
	C121.030708,413.612762 108.729111,401.328766 108.074211,385.917206 
	C107.396790,369.975464 118.535370,356.895599 134.813599,354.517578 
	C147.574707,352.653320 160.924332,360.445343 166.130661,372.796997 
	C171.480515,385.489105 167.458206,400.369720 156.449127,408.536316 
	C154.998276,409.612579 153.477753,410.594910 151.810760,411.743988 
	C155.692368,425.080322 159.527588,438.300812 163.394867,451.511871 
	C164.297302,454.594727 165.308701,457.645691 166.593674,461.199799 
	C165.960052,468.640228 158.965668,471.016052 155.375610,476.052307 
	C153.687592,478.420227 150.175491,480.824127 147.788757,483.593262 
	C146.883102,484.643982 145.411865,485.207245 144.198410,485.992676 
z"></path>
<path fill="#26B4C5" opacity="1.000000" stroke="none" d="
M246.674286,520.850525 
	C256.045074,515.526672 265.455963,510.271179 274.748627,504.814331 
	C276.371124,503.861603 277.495880,502.061279 278.850464,500.652405 
	C277.123840,500.052338 275.414154,499.395294 273.663788,498.875214 
	C272.718811,498.594421 271.704285,498.547760 270.398132,497.863434 
	C271.048615,494.290680 272.022125,491.249939 272.995605,488.209229 
	C277.303009,488.908966 279.887177,487.587402 282.311951,483.390594 
	C287.059479,475.173584 295.053101,471.702362 304.425781,473.055145 
	C308.880127,473.698029 310.841522,472.131866 313.026184,468.666687 
	C327.493378,445.719696 342.177338,422.909302 356.806305,400.064423 
	C357.865509,398.410278 359.047546,396.834839 360.074554,395.363098 
	C366.253845,401.336151 365.786926,406.639282 361.067505,413.601379 
	C347.157898,434.120819 334.135620,455.241821 320.773895,476.132416 
	C320.068665,477.235046 319.436035,478.384094 318.823822,479.419861 
	C327.453827,492.825958 327.022034,504.168884 317.677704,512.959167 
	C308.592957,521.505310 296.968811,521.201843 284.040039,511.948334 
	C267.686890,520.977234 251.243896,530.055725 234.445862,538.847046 
	C237.869583,534.456970 241.456284,530.151428 245.494965,526.322632 
	C248.163620,523.792603 248.804550,522.582397 246.674286,520.850525 
z"></path>
<path fill="#49BABB" opacity="1.000000" stroke="none" d="
M638.464966,448.906372 
	C641.586365,438.245789 644.545837,427.533661 647.913879,416.951538 
	C649.149292,413.069977 648.648499,410.969238 645.029602,408.497101 
	C633.996155,400.960144 629.891113,386.278656 634.690674,373.864410 
	C639.573975,361.233521 652.629456,352.882507 665.284912,354.294556 
	C679.713867,355.904510 690.840576,366.186737 692.861267,379.777985 
	C695.513489,397.616486 682.845825,413.222870 664.128967,414.517212 
	C660.080383,414.797211 658.820740,416.265320 657.925232,419.759521 
	C656.318665,426.028046 654.237671,432.174957 651.825073,438.737854 
	C647.018433,442.370819 642.741699,445.638611 638.464966,448.906372 
z"></path>
<path fill="#4EBBB8" opacity="1.000000" stroke="none" d="
M496.997833,575.279663 
	C513.646851,573.970520 528.868835,584.957153 532.684692,601.037048 
	C536.563843,617.383850 527.801270,634.398071 512.315369,640.588013 
	C496.346252,646.971191 478.742310,640.864075 470.106812,625.224548 
	C474.321167,620.418274 472.574707,615.159851 473.038696,610.309692 
	C473.318756,607.381592 473.009735,603.669556 474.647766,601.732178 
	C480.051422,595.341248 486.217560,589.594482 492.113434,583.622559 
	C492.296417,583.437195 492.725525,583.494873 493.972992,583.274170 
	C494.181946,585.823914 494.370667,588.298340 494.592224,590.769775 
	C494.740784,592.426575 494.936005,594.079163 495.110352,595.733643 
	C496.869141,595.030518 499.174377,594.775879 500.227264,593.493225 
	C501.206787,592.299988 501.588867,589.658997 500.928955,588.279724 
	C499.616455,585.536316 497.407288,583.221863 495.694916,580.901428 
	C496.127655,579.034363 496.562744,577.157043 496.997833,575.279663 
z"></path>
<path fill="#31B6C1" opacity="1.000000" stroke="none" d="
M204.078445,646.848755 
	C219.479111,648.670959 231.695267,662.221130 232.712738,678.610046 
	C233.664688,693.943176 222.646210,708.958069 207.539032,712.914368 
	C188.264175,717.962097 170.606873,707.067627 165.493393,686.329834 
	C171.122299,681.141968 176.675720,676.648987 181.593460,671.543701 
	C189.313751,663.529053 196.605316,655.101440 204.078445,646.848755 
z"></path>
<path fill="#5CBEB3" opacity="1.000000" stroke="none" d="
M625.772827,653.813110 
	C623.635864,657.559143 621.262573,661.083557 618.907654,664.410889 
	C614.734680,670.306885 608.560791,673.436279 604.026489,678.602234 
	C597.191895,686.388916 589.577087,693.493347 582.226013,700.819580 
	C581.579041,701.464294 580.429993,701.605225 579.138306,702.030579 
	C570.583008,693.156189 568.245911,682.581482 571.429504,671.218628 
	C574.661621,659.682922 582.134155,651.347290 593.937439,648.033142 
	C598.378113,646.786377 600.102173,645.192749 599.998352,640.367310 
	C599.729614,627.885315 600.113464,615.389282 600.710815,602.366455 
	C604.380798,601.554016 607.576660,601.274048 610.772461,600.994080 
	C610.569946,614.471863 610.449402,627.951660 610.112732,641.426086 
	C610.017700,645.231445 610.643494,647.374451 615.126160,648.251038 
	C618.810364,648.971436 622.103943,651.689453 625.772827,653.813110 
z"></path>
<path fill="#16B1C8" opacity="1.000000" stroke="none" d="
M465.904694,170.364929 
	C468.112091,169.088303 470.671448,168.668167 472.136627,167.174622 
	C476.760712,162.460846 481.014954,157.379547 485.333466,152.372452 
	C488.285004,148.950302 491.104889,145.414642 493.989014,141.575668 
	C509.497070,139.068222 520.938782,145.338425 528.947021,158.586884 
	C527.836365,159.455521 526.791260,159.755524 526.160583,160.438324 
	C519.373169,167.786728 512.760559,175.299332 505.877594,182.555908 
	C500.036011,188.714630 493.860107,194.555130 487.934021,200.635696 
	C486.719879,201.881470 485.958130,203.568100 484.987854,205.051498 
	C471.969116,199.675201 463.863129,185.209244 465.904694,170.364929 
z"></path>
<path fill="#42B9BD" opacity="1.000000" stroke="none" d="
M529.895447,518.276489 
	C529.423523,518.121460 528.882568,518.066650 528.489929,517.796448 
	C522.175354,513.451599 516.739502,511.392151 508.931030,516.834717 
	C500.539856,522.683350 488.350739,518.933777 481.582947,510.971558 
	C474.801483,502.993256 474.236786,491.655334 480.208710,482.782715 
	C481.031006,481.560974 481.985626,480.428314 483.007355,479.085785 
	C481.752075,476.924591 480.512756,474.790924 479.540100,472.284058 
	C482.252869,469.860474 484.698944,467.810059 487.145020,465.759644 
	C489.823395,471.648682 493.945129,473.678772 500.726562,473.068909 
	C508.723145,472.349762 515.366455,476.649384 519.089783,483.688324 
	C521.402649,488.060699 524.213074,488.527588 528.225220,487.830048 
	C530.180542,487.490082 532.166748,487.327515 534.567871,487.531372 
	C535.443115,490.837250 534.666687,492.769257 531.697876,494.025818 
	C530.174927,494.670441 529.214966,496.645538 528.000549,498.019348 
	C527.033020,498.260773 525.992737,498.354095 525.117920,498.784088 
	C524.190430,499.239929 522.879578,499.912415 522.732849,500.680634 
	C522.585388,501.452667 523.447632,502.815308 524.244446,503.302490 
	C528.159058,505.696014 532.199219,507.884216 536.113831,510.534729 
	C533.986877,513.375122 531.941162,515.825806 529.895447,518.276489 
z"></path>
<path fill="#2BB6C4" opacity="1.000000" stroke="none" d="
M504.683380,259.985229 
	C504.759766,268.303253 505.088562,276.629822 504.806641,284.935669 
	C504.664642,289.119324 505.718689,291.261444 509.819458,293.087585 
	C520.509277,297.847900 525.410950,310.217438 521.685974,321.201721 
	C517.954041,332.206512 506.559204,338.911499 495.212402,336.779449 
	C483.809082,334.636719 475.453430,324.312805 476.128662,312.771667 
	C476.695282,303.087097 481.673492,296.139954 490.549500,292.358948 
	C493.351227,291.165375 494.220947,289.777191 494.147522,286.882538 
	C493.970367,279.895294 494.115295,272.899902 494.566803,265.440308 
	C496.475311,264.009918 497.880524,262.916351 499.437653,262.119629 
	C501.111908,261.262970 502.928741,260.684845 504.683380,259.985229 
z"></path>
<path fill="#54BDB7" opacity="1.000000" stroke="none" d="
M580.048462,534.872192 
	C582.521729,535.738586 584.995056,536.605042 587.737366,537.565674 
	C596.761353,530.156128 606.785156,528.171509 617.321533,534.907043 
	C631.686462,544.090027 631.327026,565.597168 616.490906,574.000977 
	C612.228333,576.415527 610.378784,578.875244 611.028625,583.591187 
	C611.320557,585.709595 611.019897,587.909607 610.568237,590.487305 
	C607.055237,589.950317 603.962158,588.998657 600.869019,588.046997 
	C602.345093,580.208679 598.177795,576.944153 591.594910,573.313477 
	C581.887695,567.959656 579.438965,558.183655 581.878601,547.173218 
	C579.719421,545.915161 577.598267,544.679138 575.403870,542.885925 
	C576.903259,539.843201 578.475830,537.357727 580.048462,534.872192 
z"></path>
<path fill="#4FBCB8" opacity="1.000000" stroke="none" d="
M638.289307,449.198669 
	C642.741699,445.638611 647.018433,442.370819 651.629578,439.051575 
	C650.284546,445.070984 648.813477,451.210632 646.840637,457.184540 
	C645.807373,460.313263 646.165222,462.167114 648.835510,464.380188 
	C656.687805,470.887939 659.028992,479.473297 656.062744,489.096313 
	C653.075500,498.787384 646.120239,504.223450 635.988525,505.194794 
	C626.035889,506.148926 618.208740,502.128632 613.649963,493.400574 
	C611.295410,488.892548 608.171387,490.264832 604.495056,489.843292 
	C606.405945,487.083923 608.826172,484.809723 611.049194,482.356781 
	C616.383423,476.470886 621.701599,470.566071 626.842346,464.512665 
	C627.926880,463.235596 628.224243,461.289917 628.884338,459.652344 
	C636.173523,460.091553 636.674133,454.364868 638.289307,449.198669 
z"></path>
<path fill="#1CB2C6" opacity="1.000000" stroke="none" d="
M504.761444,259.523438 
	C502.928741,260.684845 501.111908,261.262970 499.437653,262.119629 
	C497.880524,262.916351 496.475311,264.009918 494.657013,264.978943 
	C494.310791,246.205444 494.310791,227.425827 494.310791,208.751724 
	C491.005554,207.577316 488.225311,206.589462 485.216461,205.326538 
	C485.958130,203.568100 486.719879,201.881470 487.934021,200.635696 
	C493.860107,194.555130 500.036011,188.714630 505.877594,182.555908 
	C512.760559,175.299332 519.373169,167.786728 526.160583,160.438324 
	C526.791260,159.755524 527.836365,159.455521 529.072205,158.927063 
	C539.096130,174.946793 532.306946,202.142105 504.839508,208.502167 
	C504.839508,225.266830 504.839508,242.164230 504.761444,259.523438 
z"></path>
<path fill="#16B1C8" opacity="1.000000" stroke="none" d="
M144.155228,486.379028 
	C145.411865,485.207245 146.883102,484.643982 147.788757,483.593262 
	C150.175491,480.824127 153.687592,478.420227 155.375610,476.052307 
	C158.965668,471.016052 165.960052,468.640228 166.952438,461.317200 
	C177.700241,460.589325 186.486008,466.708954 189.669739,477.291748 
	C190.505890,480.071167 191.623566,480.911255 194.363647,481.082947 
	C200.980804,481.497589 207.574631,482.284302 214.547058,483.366089 
	C213.275513,486.823364 211.634796,489.835571 209.994080,492.847839 
	C204.369125,492.419495 198.748413,491.815552 193.116394,491.679016 
	C191.594482,491.642151 189.329208,492.601959 188.609558,493.817413 
	C182.672531,503.845154 173.981232,508.501617 163.419769,506.910248 
	C153.600876,505.430725 146.545731,498.069702 144.155228,486.379028 
z"></path>
<path fill="#20B3C6" opacity="1.000000" stroke="none" d="
M246.335388,520.911621 
	C248.804550,522.582397 248.163620,523.792603 245.494965,526.322632 
	C241.456284,530.151428 237.869583,534.456970 234.094223,538.939453 
	C230.581329,541.374390 226.914230,543.221069 223.628326,545.595276 
	C222.432922,546.459045 222.146332,548.580627 221.077026,550.557007 
	C215.477936,555.980286 210.265945,560.995117 205.009995,565.963318 
	C200.736221,570.003113 196.409760,573.987122 192.106644,577.995850 
	C190.942627,577.138367 189.868256,576.108337 188.600784,575.449951 
	C175.951416,568.879395 171.422729,554.319946 178.402267,542.486572 
	C185.498306,530.455688 200.780640,527.387085 212.606705,535.620178 
	C213.553772,536.279480 214.491898,536.951660 215.567352,537.712036 
	C225.732468,532.120117 235.864487,526.546387 246.335388,520.911621 
z"></path>
<path fill="#F39909" opacity="1.000000" stroke="none" d="
M450.051300,317.948273 
	C453.056305,323.042084 456.061279,328.135864 458.785583,333.625061 
	C456.698730,335.154968 454.736816,336.101990 453.110413,337.452942 
	C436.993439,350.840637 420.863434,364.214600 404.903442,377.787994 
	C400.958649,381.142853 397.617096,385.207031 393.998230,388.945129 
	C390.893250,389.016022 387.741486,388.772339 384.693451,389.225922 
	C379.038330,390.067474 375.300323,388.101044 373.720215,382.331299 
	C375.094757,381.710144 376.458130,381.744781 377.245026,381.088348 
	C384.370087,375.145020 391.384308,369.069092 398.450653,363.055145 
	C406.901459,355.862885 415.457672,348.791656 423.809753,341.486877 
	C432.653961,333.751587 441.311981,325.803467 450.051300,317.948273 
z"></path>
<path fill="#2BB6C4" opacity="1.000000" stroke="none" d="
M203.923279,646.434204 
	C196.605316,655.101440 189.313751,663.529053 181.593460,671.543701 
	C176.675720,676.648987 171.122299,681.141968 165.518890,685.952271 
	C165.557358,680.276123 165.289932,674.411621 166.543564,668.892578 
	C167.301224,665.556946 167.183746,663.960632 164.395416,661.991882 
	C151.206802,652.679321 138.162155,643.162903 124.882141,633.427856 
	C125.463783,632.138550 126.419090,631.231262 126.950783,630.121155 
	C127.752708,628.446838 128.258835,626.630737 128.937744,624.507874 
	C138.226288,630.570862 147.490524,636.968628 156.700974,643.442810 
	C162.538498,647.546143 168.295944,651.763367 173.139313,655.246399 
	C179.294220,652.332458 184.814331,649.915466 190.105988,647.073242 
	C191.401611,646.377258 192.668716,644.312378 192.715363,642.837769 
	C192.904343,636.863831 192.612274,630.874634 192.958847,624.431091 
	C196.560822,621.980042 199.701630,619.989014 202.842438,617.997925 
	C203.151001,627.338501 203.459549,636.679138 203.923279,646.434204 
z"></path>
<path fill="#F18B07" opacity="1.000000" stroke="none" d="
M449.992310,317.601440 
	C441.311981,325.803467 432.653961,333.751587 423.809753,341.486877 
	C415.457672,348.791656 406.901459,355.862885 398.450653,363.055145 
	C391.384308,369.069092 384.370087,375.145020 377.245026,381.088348 
	C376.458130,381.744781 375.094757,381.710144 373.635132,382.001129 
	C371.216095,378.549286 369.160675,375.092316 367.102753,370.952301 
	C373.477753,364.807465 379.805023,359.285645 386.245331,353.898956 
	C394.479187,347.012146 402.873535,340.316345 411.072693,333.389069 
	C421.796478,324.328796 432.397064,315.122681 443.050659,305.979309 
	C445.344879,309.737762 447.639099,313.496185 449.992310,317.601440 
z"></path>
<path fill="#EF7E05" opacity="1.000000" stroke="none" d="
M442.995911,305.630798 
	C432.397064,315.122681 421.796478,324.328796 411.072693,333.389069 
	C402.873535,340.316345 394.479187,347.012146 386.245331,353.898956 
	C379.805023,359.285645 373.477753,364.807465 367.047058,370.602722 
	C364.348053,366.537048 361.702240,362.137878 359.374969,357.372742 
	C360.476501,356.780701 361.443207,356.774384 362.015320,356.296051 
	C372.936768,347.164764 383.808167,337.973633 394.697296,328.803650 
	C408.493988,317.185120 422.297241,305.574402 436.097656,293.960297 
	C438.378845,297.734283 440.660034,301.508301 442.995911,305.630798 
z"></path>
<path fill="#F5A60C" opacity="1.000000" stroke="none" d="
M394.459839,389.034454 
	C397.617096,385.207031 400.958649,381.142853 404.903442,377.787994 
	C420.863434,364.214600 436.993439,350.840637 453.110413,337.452942 
	C454.736816,336.101990 456.698730,335.154968 458.870789,333.974762 
	C462.638214,337.444122 462.937988,340.694977 460.156219,345.217194 
	C452.062256,358.375122 444.521301,371.876373 436.917938,385.330292 
	C435.371277,388.067047 433.747253,389.388123 430.358521,389.308868 
	C418.551178,389.032745 406.734558,389.153748 394.459839,389.034454 
z"></path>
<path fill="#EB6602" opacity="1.000000" stroke="none" d="
M352.674774,346.145874 
	C348.744080,342.287262 349.129028,338.649719 352.005066,333.984955 
	C359.925049,321.139343 367.415466,308.019714 374.736145,294.820099 
	C376.650726,291.367950 378.829834,290.368439 382.573151,290.457520 
	C393.501007,290.717560 404.437958,290.593719 415.663025,291.113892 
	C414.809784,292.976227 413.830292,294.538147 412.493683,295.683167 
	C402.209930,304.492615 391.874390,313.241913 381.520325,321.968842 
	C371.927399,330.054291 362.291687,338.088898 352.674774,346.145874 
z"></path>
<path fill="#ED7202" opacity="1.000000" stroke="none" d="
M352.767670,346.491394 
	C362.291687,338.088898 371.927399,330.054291 381.520325,321.968842 
	C391.874390,313.241913 402.209930,304.492615 412.493683,295.683167 
	C413.830292,294.538147 414.809784,292.976227 415.995209,291.254486 
	C421.428955,290.818970 426.827820,290.578003 432.211182,290.770813 
	C433.476654,290.816101 434.689758,292.325775 436.012299,293.561035 
	C422.297241,305.574402 408.493988,317.185120 394.697296,328.803650 
	C383.808167,337.973633 372.936768,347.164764 362.015320,356.296051 
	C361.443207,356.774384 360.476501,356.780701 359.325867,357.023926 
	C356.925720,353.639740 354.893158,350.238312 352.767670,346.491394 
z"></path>
<path fill="#3EB8BF" opacity="1.000000" stroke="none" d="
M389.137085,566.395935 
	C394.954895,559.421265 400.863525,552.642456 406.987854,546.064514 
	C410.653656,542.127197 414.708282,538.553894 418.452911,534.685974 
	C419.011200,534.109253 418.825165,532.811951 418.975464,531.470947 
	C427.254700,536.712463 430.062103,544.691833 428.456177,554.252319 
	C428.026489,556.810364 428.352692,558.160339 430.603516,559.435730 
	C433.985382,561.352051 437.179382,563.600037 440.678253,566.277588 
	C438.908173,569.329956 436.913086,571.811707 434.918030,574.293457 
	C434.178925,573.929138 433.376678,573.654602 432.710663,573.186279 
	C426.885101,569.089905 422.064087,566.026794 414.039368,571.111084 
	C405.975037,576.220398 396.686615,573.239380 389.137085,566.395935 
z"></path>
<path fill="#49BABB" opacity="1.000000" stroke="none" d="
M435.106445,574.558594 
	C436.913086,571.811707 438.908173,569.329956 440.943970,566.515503 
	C450.800293,572.316223 460.726654,578.283142 470.358521,584.692627 
	C472.974823,586.433655 474.377960,585.982605 476.262939,584.159119 
	C481.820587,578.782837 488.596252,576.047424 496.597717,575.226624 
	C496.562744,577.157043 496.127655,579.034363 495.694916,580.901428 
	C497.407288,583.221863 499.616455,585.536316 500.928955,588.279724 
	C501.588867,589.658997 501.206787,592.299988 500.227264,593.493225 
	C499.174377,594.775879 496.869141,595.030518 495.110352,595.733643 
	C494.936005,594.079163 494.740784,592.426575 494.592224,590.769775 
	C494.370667,588.298340 494.181946,585.823914 493.972992,583.274170 
	C492.725525,583.494873 492.296417,583.437195 492.113434,583.622559 
	C486.217560,589.594482 480.051422,595.341248 474.647766,601.732178 
	C473.009735,603.669556 473.318756,607.381592 473.038696,610.309692 
	C472.574707,615.159851 474.321167,620.418274 470.047546,624.888184 
	C464.145233,615.874207 464.353699,606.072632 467.908081,595.569153 
	C457.092255,588.689148 446.193542,581.756470 435.106445,574.558594 
z"></path>
<path fill="#4CBBBB" opacity="1.000000" stroke="none" d="
M628.504883,459.693878 
	C628.224243,461.289917 627.926880,463.235596 626.842346,464.512665 
	C621.701599,470.566071 616.383423,476.470886 611.049194,482.356781 
	C608.826172,484.809723 606.405945,487.083923 604.059387,489.812439 
	C594.844849,491.265991 585.656860,492.448120 576.445435,493.404388 
	C560.607483,495.048553 544.754944,496.551941 528.454590,498.066895 
	C529.214966,496.645538 530.174927,494.670441 531.697876,494.025818 
	C534.666687,492.769257 535.443115,490.837250 534.994019,487.573242 
	C557.406921,484.792206 579.816345,482.354950 602.243042,480.087891 
	C607.105774,479.596313 610.874512,479.300598 612.626099,473.066559 
	C614.641479,465.893860 620.621704,461.481384 628.504883,459.693878 
z"></path>
<path fill="#36B7C0" opacity="1.000000" stroke="none" d="
M487.071503,465.427368 
	C484.698944,467.810059 482.252869,469.860474 479.471527,471.948792 
	C466.104675,450.581329 453.073090,429.175934 440.506897,408.535034 
	C443.502991,405.978790 446.079620,403.780457 448.923889,401.353760 
	C458.600250,417.716827 468.378174,434.298889 478.210358,450.848755 
	C481.059723,455.644958 484.064453,460.348877 487.071503,465.427368 
z"></path>
<path fill="#2BB6C4" opacity="1.000000" stroke="none" d="
M410.815277,476.526794 
	C407.513672,478.651001 404.285370,480.312439 400.715698,481.981781 
	C400.311707,457.534027 400.246552,433.078339 400.206055,408.622620 
	C400.205292,408.165894 400.497528,407.708679 400.776947,406.887604 
	C403.518219,406.887604 406.310669,406.887604 409.635254,407.166382 
	C410.316071,407.689087 410.521149,407.868530 410.782593,407.983521 
	C410.817932,430.677002 410.853241,453.370483 410.815277,476.526794 
z"></path>
<path fill="#26B4C5" opacity="1.000000" stroke="none" d="
M202.906265,617.533203 
	C199.701630,619.989014 196.560822,621.980042 193.113586,623.993408 
	C192.535370,611.135254 192.258865,598.255005 191.996353,585.374329 
	C191.952545,583.224792 191.969574,581.073975 192.032562,578.459839 
	C196.409760,573.987122 200.736221,570.003113 205.009995,565.963318 
	C210.265945,560.995117 215.477936,555.980286 221.094299,550.946655 
	C223.225189,561.945435 217.319870,572.426819 206.641022,575.978882 
	C202.749146,577.273315 202.195297,579.167114 202.323456,582.740906 
	C202.733582,594.176453 202.782013,605.625000 202.906265,617.533203 
z"></path>
<path fill="#20B3C6" opacity="1.000000" stroke="none" d="
M210.404312,492.939972 
	C211.634796,489.835571 213.275513,486.823364 214.954834,483.463654 
	C232.559830,484.603424 250.126358,486.088837 267.692322,487.581207 
	C269.184174,487.707947 270.672058,487.880829 272.578705,488.120728 
	C272.022125,491.249939 271.048615,494.290680 270.038391,497.700256 
	C250.272644,496.390106 230.543594,494.711121 210.404312,492.939972 
z"></path>
<path fill="#4CBBBB" opacity="1.000000" stroke="none" d="
M579.947388,534.552856 
	C578.475830,537.357727 576.903259,539.843201 575.182129,542.624939 
	C560.125305,534.878479 545.217102,526.835754 530.102173,518.534790 
	C531.941162,515.825806 533.986877,513.375122 536.412720,510.760986 
	C551.143921,518.476196 565.495056,526.354858 579.947388,534.552856 
z"></path>
<path fill="#54BDB7" opacity="1.000000" stroke="none" d="
M610.844849,600.624390 
	C607.576660,601.274048 604.380798,601.554016 600.818176,601.909119 
	C600.461304,598.211731 600.471252,594.439148 601.049683,590.326294 
	C602.757996,590.879822 603.945496,591.719788 605.027100,592.679260 
	C606.986145,594.416992 608.882019,596.225891 610.804260,598.005127 
	C610.841919,598.754944 610.879517,599.504822 610.844849,600.624390 
z"></path>
<path fill="#5CBEB3" opacity="1.000000" stroke="none" d="
M610.879761,597.571899 
	C608.882019,596.225891 606.986145,594.416992 605.027100,592.679260 
	C603.945496,591.719788 602.757996,590.879822 601.230957,589.964478 
	C600.806396,589.519531 600.769104,589.096130 600.800415,588.359863 
	C603.962158,588.998657 607.055237,589.950317 610.503296,590.947266 
	C610.890503,593.041260 610.922852,595.089966 610.879761,597.571899 
z"></path>
<path fill="#16B1C8" opacity="1.000000" stroke="none" d="
M478.624878,147.963287 
	C479.334381,151.156204 478.937164,153.774796 474.103271,152.908569 
	C475.207428,151.271912 476.756561,149.670700 478.624878,147.963287 
z"></path>
<path fill="#3EB8BF" opacity="1.000000" stroke="none" d="
M383.348145,569.026367 
	C383.853943,568.400024 384.681122,567.725830 385.889587,567.079834 
	C385.403778,567.731567 384.536682,568.355042 383.348145,569.026367 
z"></path>
<path fill="#3EB8BF" opacity="1.000000" stroke="none" d="
M378.338562,572.007812 
	C378.842773,571.382812 379.667603,570.714722 380.870483,570.072876 
	C380.385406,570.721008 379.522278,571.342896 378.338562,572.007812 
z"></path>
<path fill="#3EB8BF" opacity="1.000000" stroke="none" d="
M410.808960,407.729950 
	C410.521149,407.868530 410.316071,407.689087 410.087494,407.254364 
	C410.283478,407.201141 410.559387,407.338776 410.808960,407.729950 
z"></path>
<path fill="#16B1C8" opacity="1.000000" stroke="none" d="
M469.491882,156.379486 
	C470.287567,155.982101 470.948395,155.880325 471.609192,155.778549 
	C471.539886,156.349594 471.470612,156.920654 471.401367,157.491714 
	C470.719910,157.219498 470.038422,156.947281 469.491882,156.379486 
z"></path>
</svg><style>@media (prefers-color-scheme: light) { :root { filter: none; } }
</style></svg>