<?xml version="1.0" standalone="no"?>
<!DOCTYPE svg PUBLIC "-//W3C//DTD SVG 20010904//EN"
 "http://www.w3.org/TR/2001/REC-SVG-20010904/DTD/svg10.dtd">
<svg version="1.0" xmlns="http://www.w3.org/2000/svg"
 width="800.000000pt" height="800.000000pt" viewBox="0 0 800.000000 800.000000"
 preserveAspectRatio="xMidYMid meet">
<metadata>
Created by potrace 1.14, written by Peter Selinger 2001-2017
</metadata>
<g transform="translate(0.000000,800.000000) scale(0.100000,-0.100000)"
fill="#000000" stroke="none">
<path d="M3956 7122 c-4 -7 -12 -10 -17 -7 -5 4 -9 1 -9 -5 0 -6 -4 -8 -10 -5
-5 3 -10 2 -10 -3 0 -9 -47 -27 -62 -24 -4 1 -4 -6 -1 -15 4 -11 3 -14 -5 -9
-7 4 -12 1 -12 -8 0 -8 -5 -18 -12 -22 -6 -4 -8 -3 -5 3 3 5 0 10 -7 10 -8 0
-12 -7 -8 -15 3 -10 1 -13 -6 -8 -7 4 -12 1 -12 -9 0 -8 -6 -18 -14 -21 -8 -3
-17 -12 -20 -20 -3 -9 -1 -12 4 -9 6 3 10 1 10 -4 0 -10 -14 -15 -33 -12 -4 1
-3 -8 3 -19 6 -11 7 -20 3 -20 -4 0 -13 -11 -20 -25 -8 -19 -8 -23 0 -19 9 5
9 4 0 -6 -6 -7 -9 -19 -6 -26 3 -8 0 -14 -7 -14 -6 0 -8 -4 -5 -10 11 -18 14
-50 4 -55 -5 -4 -2 -13 7 -23 15 -15 15 -16 -2 -23 -11 -4 -13 -8 -6 -8 9 -1
10 -6 3 -20 -6 -10 -8 -21 -6 -25 3 -3 2 -4 -2 -1 -3 3 -15 -3 -26 -12 -11
-10 -17 -12 -13 -5 7 12 4 12 -15 1 -33 -17 -49 -35 -41 -44 4 -4 -3 -3 -14 3
-18 10 -21 9 -20 -6 1 -11 -5 -16 -18 -14 -10 2 -16 -1 -13 -5 3 -5 -4 -15
-16 -23 -19 -11 -21 -11 -12 1 7 11 6 11 -5 -1 -8 -8 -24 -22 -35 -30 -20 -15
-20 -15 0 10 l20 25 -28 -25 c-16 -14 -31 -23 -34 -22 -2 2 -8 0 -11 -4 -4 -4
-2 -4 5 0 6 3 15 1 19 -6 4 -7 3 -10 -1 -5 -5 4 -20 0 -34 -10 -20 -13 -24
-13 -16 -2 6 8 2 6 -8 -4 -10 -11 -20 -17 -23 -14 -4 3 -13 0 -20 -8 -17 -17
-18 -29 -2 -19 7 4 8 3 4 -5 -6 -9 -11 -9 -21 -1 -11 9 -16 6 -25 -11 -10 -17
-14 -19 -21 -8 -7 11 -9 11 -9 1 0 -8 -5 -10 -12 -6 -8 5 -7 0 2 -11 9 -11 10
-16 3 -11 -8 4 -13 2 -13 -5 0 -8 -4 -8 -15 1 -8 7 -24 10 -35 7 -17 -4 -20
-2 -16 16 3 12 3 16 0 10 -8 -18 -24 -16 -24 2 0 8 -5 15 -11 15 -5 0 -7 -5
-3 -11 4 -8 0 -7 -15 1 -12 6 -19 15 -16 20 3 6 -1 7 -10 4 -8 -4 -21 -1 -29
5 -7 6 -16 7 -20 3 -11 -10 -30 -9 -38 3 -6 7 -10 6 -15 -1 -5 -6 -18 -10 -31
-9 -16 1 -28 -7 -38 -24 l-15 -26 6 25 c5 19 4 21 -4 10 -6 -8 -16 -15 -23
-15 -7 -1 -12 -6 -11 -13 2 -7 -2 -12 -7 -12 -6 0 -10 -7 -10 -15 0 -8 -6 -15
-14 -15 -8 0 -18 -4 -21 -10 -4 -6 1 -7 12 -3 10 3 16 4 13 2 -40 -34 -52 -42
-45 -30 5 10 4 12 -4 7 -6 -4 -9 -11 -6 -16 3 -5 1 -11 -5 -15 -6 -4 -8 -10
-5 -15 3 -5 1 -18 -4 -28 -7 -13 -7 -22 1 -30 8 -8 8 -15 -2 -27 -9 -11 -9
-15 -1 -15 7 0 10 -4 6 -9 -3 -5 -1 -12 5 -16 5 -3 7 -18 4 -33 -4 -18 -3 -23
4 -14 7 11 10 10 16 -3 3 -9 4 -21 1 -26 -4 -5 2 -6 11 -2 13 5 15 3 9 -7 -6
-10 -4 -12 8 -7 9 3 19 1 23 -5 4 -7 3 -8 -4 -4 -7 4 -12 2 -12 -3 0 -10 14
-15 33 -12 5 1 6 -3 2 -9 -3 -5 -1 -10 5 -10 7 0 9 -7 6 -16 -3 -8 -2 -13 2
-10 5 3 21 -1 36 -9 14 -8 24 -9 20 -4 -4 7 1 7 15 0 17 -10 19 -16 11 -31 -7
-12 -7 -21 0 -25 5 -3 10 -11 10 -16 0 -6 -4 -7 -10 -4 -6 4 -7 -2 -2 -17 9
-27 8 -70 -2 -86 -3 -6 -2 -13 2 -16 10 -6 8 -48 -2 -65 -4 -5 -3 -12 2 -15
10 -6 9 -57 -1 -73 -5 -7 -4 -13 0 -13 5 0 9 -9 10 -20 1 -11 -2 -18 -8 -15
-5 4 -6 -3 -1 -17 9 -27 8 -70 -2 -86 -3 -6 -2 -13 2 -16 10 -6 8 -54 -2 -63
-3 -4 -1 -12 5 -19 7 -8 7 -14 -1 -19 -8 -5 -7 -11 2 -23 10 -12 10 -14 0 -8
-7 4 -15 1 -18 -8 -3 -9 -10 -13 -16 -10 -5 3 -17 -1 -26 -8 -29 -25 -46 -33
-38 -17 4 8 -2 3 -14 -11 -19 -21 -21 -22 -16 -5 6 19 5 19 -8 1 -8 -10 -19
-15 -25 -12 -6 4 -8 -2 -6 -15 4 -18 2 -19 -12 -7 -12 9 -15 9 -9 1 4 -7 2
-13 -3 -13 -6 0 -11 -5 -11 -11 0 -5 5 -7 10 -4 15 9 12 -1 -4 -14 -11 -9 -16
-9 -22 0 -5 8 -3 9 6 4 9 -6 11 -4 6 4 -9 15 -19 7 -22 -17 -2 -9 -8 -18 -13
-20 -6 -2 -11 -12 -11 -23 0 -10 -5 -19 -11 -19 -8 0 -7 -6 2 -17 12 -14 12
-16 0 -8 -11 6 -13 4 -7 -10 6 -16 4 -16 -10 -4 -16 13 -17 11 -10 -14 4 -17
3 -26 -2 -23 -13 8 -22 -28 -11 -45 4 -7 3 -21 -2 -31 -7 -13 -6 -18 2 -18 7
0 9 -3 6 -6 -3 -4 -2 -15 4 -25 8 -15 6 -18 -8 -13 -13 4 -12 2 3 -8 12 -7 19
-18 17 -25 -2 -6 1 -14 6 -18 6 -3 11 -11 11 -16 0 -6 -6 -7 -12 -3 -9 5 -9 3
1 -9 7 -9 18 -14 24 -10 6 4 8 -2 5 -15 -4 -16 -2 -19 10 -15 11 5 13 3 7 -7
-6 -10 -4 -12 8 -7 9 3 19 1 23 -5 4 -7 3 -8 -4 -4 -7 4 -12 2 -12 -3 0 -11
15 -15 35 -11 6 1 7 -1 3 -5 -4 -4 6 -18 23 -32 16 -14 26 -30 22 -36 -4 -7 2
-5 12 3 11 9 16 10 11 3 -5 -9 0 -13 13 -13 12 0 21 -5 21 -11 0 -5 4 -8 9 -4
5 3 12 1 16 -5 4 -6 11 -8 16 -5 5 4 9 1 9 -5 0 -6 5 -8 12 -4 18 11 48 12 48
2 0 -5 9 -4 20 2 15 8 20 8 20 -2 0 -8 3 -9 8 -3 4 6 12 11 18 12 6 1 24 4 40
7 16 3 30 10 32 16 3 7 10 6 23 -1 15 -7 19 -7 17 3 -2 7 3 12 10 10 8 -1 11
2 7 8 -3 5 -1 10 5 10 6 0 9 4 5 9 -3 5 0 13 6 17 8 4 9 3 5 -4 -11 -18 3 -14
31 8 14 11 21 20 16 20 -5 0 -15 -6 -22 -12 -10 -11 -11 -10 -6 5 4 9 11 17
17 17 15 0 38 27 30 36 -4 5 2 2 12 -6 17 -13 18 -13 11 -1 -6 11 -4 13 8 8
10 -3 17 -3 17 1 0 4 15 9 32 10 43 3 49 11 42 54 -5 31 -11 37 -33 40 -15 2
-26 9 -26 18 0 8 -4 21 -8 28 -5 6 -4 12 1 12 10 0 10 30 0 46 -4 5 -3 16 2
24 6 10 3 21 -8 34 -9 11 -12 16 -5 13 7 -5 9 0 6 13 -3 11 -12 20 -20 20 -8
0 -11 5 -8 10 4 6 1 17 -5 25 -7 8 -9 15 -5 15 4 0 2 7 -5 15 -7 8 -20 15 -30
15 -20 0 -33 25 -24 43 3 7 -2 3 -12 -8 -13 -15 -15 -16 -11 -3 6 18 -15 42
-28 30 -5 -4 -5 1 -2 10 4 11 2 15 -7 12 -7 -3 -16 2 -19 10 -4 9 -11 16 -17
16 -6 0 -8 -5 -4 -12 4 -6 -3 -4 -15 4 -12 9 -31 14 -42 11 -17 -5 -18 0 -16
41 1 25 -2 47 -8 49 -6 2 -5 10 3 19 9 11 10 18 2 23 -6 3 -7 12 -3 18 11 17
10 91 -1 99 -6 4 -5 12 3 21 8 11 9 17 1 22 -6 3 -7 12 -3 18 11 17 10 91 -1
99 -6 4 -5 12 3 21 8 11 9 17 1 22 -6 3 -7 12 -3 18 8 14 10 97 2 97 -3 0 -6
7 -6 15 0 8 3 15 7 15 4 0 6 13 5 30 -1 16 1 27 5 25 4 -3 16 6 26 20 13 18
21 21 31 13 10 -8 13 -6 13 7 0 11 5 15 16 11 8 -3 12 -2 9 4 -3 6 1 10 9 10
8 0 20 10 27 21 9 17 8 20 -3 14 -7 -3 -4 1 6 9 11 9 22 16 26 16 5 0 12 108
11 168 -1 13 4 20 9 17 6 -3 10 1 10 10 0 12 5 15 16 11 12 -4 15 -2 10 9 -3
9 3 19 14 25 11 6 20 8 20 4 0 -3 6 -1 13 5 8 6 16 8 20 5 3 -3 10 3 16 15 7
12 18 18 31 16 11 -2 18 0 15 6 -4 5 -1 9 5 9 6 0 8 5 4 13 -5 7 -2 7 10 -2
13 -11 16 -11 14 -1 -2 7 3 15 11 18 9 3 11 0 7 -9 -4 -8 -1 -5 8 5 8 10 13
22 11 26 -2 4 2 7 10 7 8 0 11 -5 8 -11 -3 -6 6 1 21 17 15 15 33 27 40 27 8
0 17 7 20 16 5 14 9 14 23 3 12 -10 14 -10 9 -1 -4 7 -2 12 4 12 6 0 8 5 4 13
-5 7 0 6 11 -3 10 -8 16 -10 12 -4 -4 7 1 18 10 25 11 10 14 10 9 2 -5 -9 -2
-11 9 -7 9 4 14 13 10 22 -5 13 -3 13 12 1 11 -9 14 -10 9 -1 -4 7 -1 12 8 12
9 0 16 4 16 8 0 4 9 8 19 8 16 0 18 -3 8 -15 -9 -11 -9 -13 0 -8 6 4 14 3 18
-2 3 -6 13 -7 23 -4 13 4 13 2 -3 -10 -20 -15 -19 -16 10 -28 17 -7 39 -14 50
-16 10 -2 22 -9 26 -15 4 -6 23 -12 43 -12 20 -1 36 -3 36 -6 0 -3 38 -4 85
-2 62 3 83 7 78 15 -4 7 1 6 10 -2 13 -10 17 -10 17 -1 0 7 8 10 19 7 10 -2
25 0 32 5 10 7 9 8 -5 4 -16 -5 -17 -4 -7 8 7 8 20 12 28 9 10 -4 14 -2 9 5
-3 6 3 17 14 25 11 7 17 18 12 23 -4 4 2 2 12 -6 14 -10 17 -11 12 -2 -4 7 -2
20 5 28 10 13 15 13 35 -1 17 -11 24 -12 27 -2 3 6 6 3 6 -8 1 -17 3 -17 11
-5 8 13 10 13 10 -2 0 -9 5 -20 12 -24 7 -4 8 -3 4 4 -14 23 7 12 30 -15 15
-17 24 -22 24 -14 0 8 11 0 25 -19 14 -19 25 -30 25 -25 0 5 -8 18 -17 29 -10
12 -1 6 19 -13 22 -20 43 -31 52 -28 8 3 18 1 22 -5 5 -7 2 -8 -6 -3 -9 5 -11
4 -6 -4 4 -7 17 -11 29 -9 12 2 22 -3 23 -9 1 -7 2 -19 3 -25 1 -9 4 -8 11 2
5 8 10 11 11 5 0 -5 2 -20 5 -32 2 -13 -1 -23 -6 -23 -6 0 -10 -5 -10 -11 0
-5 6 -7 13 -3 6 4 4 -2 -6 -13 -12 -14 -15 -23 -8 -28 8 -4 8 -12 1 -26 -8
-13 -7 -19 0 -19 7 0 8 -6 0 -19 -7 -15 -6 -23 6 -35 12 -12 12 -16 2 -16 -7
-1 -2 -8 12 -16 14 -8 17 -13 7 -10 -16 5 -16 4 -1 -19 9 -14 21 -25 26 -25 6
0 4 -8 -3 -17 -10 -11 -10 -14 -1 -9 11 6 17 -5 13 -26 0 -5 3 -8 7 -8 5 0 17
-7 28 -16 10 -8 13 -12 5 -8 -10 5 -12 3 -7 -5 5 -7 15 -10 23 -7 10 4 13 2
10 -8 -4 -11 -1 -13 10 -9 11 4 14 2 9 -5 -4 -7 -1 -12 9 -12 10 0 13 -5 9
-12 -6 -10 -4 -10 8 0 13 10 17 10 22 -4 4 -9 12 -14 22 -10 8 3 12 2 9 -4 -3
-6 2 -10 12 -10 11 0 25 -6 32 -12 11 -11 13 -10 7 2 -5 9 -2 9 7 -2 10 -13
15 -53 16 -150 1 -73 2 -140 2 -148 0 -8 0 -80 0 -160 0 -80 0 -152 0 -160 -1
-8 -1 -35 0 -60 1 -25 1 -51 0 -57 0 -7 -1 -21 -2 -30 0 -10 -3 -25 -6 -33 -4
-8 -7 -19 -7 -25 -1 -5 -8 -10 -16 -10 -8 0 -22 -8 -31 -17 -12 -14 -18 -15
-28 -5 -10 9 -11 8 -5 -7 5 -13 4 -17 -4 -12 -8 5 -10 2 -6 -8 4 -11 0 -14
-16 -11 -17 3 -19 1 -11 -9 9 -10 7 -17 -6 -27 -16 -12 -17 -12 -6 2 10 13 10
16 -1 16 -9 0 -13 -8 -10 -25 4 -18 1 -23 -10 -19 -11 4 -13 0 -10 -19 2 -13
1 -24 -4 -24 -12 0 -9 -73 2 -82 6 -4 5 -12 -3 -21 -9 -12 -9 -17 0 -23 9 -5
9 -10 -2 -18 -21 -17 -49 -72 -41 -81 4 -5 1 -5 -6 -1 -7 4 -10 12 -7 17 4 5
1 9 -4 9 -6 0 -11 -9 -11 -20 0 -11 -7 -20 -15 -20 -9 0 -18 -7 -21 -15 -4 -8
-10 -12 -15 -9 -5 3 -9 0 -9 -6 0 -6 -5 -8 -12 -4 -10 6 -10 4 0 -8 10 -13 10
-18 1 -24 -7 -4 -9 -3 -6 3 8 13 -17 36 -27 26 -4 -4 -4 0 0 10 3 10 1 17 -5
17 -6 0 -11 11 -11 24 0 14 -5 28 -12 32 -7 4 -8 3 -4 -4 4 -7 5 -12 2 -12 -3
0 -10 10 -17 21 -9 17 -8 20 3 14 7 -4 0 5 -17 20 -16 14 -24 24 -17 20 19
-10 14 2 -10 26 -13 12 -17 19 -10 15 21 -13 13 4 -15 29 -16 13 -22 25 -15
25 7 0 10 5 7 10 -4 6 -11 8 -16 5 -5 -3 -6 0 -3 8 3 8 0 18 -7 23 -8 5 -10 3
-4 -7 5 -8 4 -11 -1 -6 -5 5 -10 13 -10 18 -1 5 -2 14 -3 19 0 6 -11 15 -23
20 -23 9 -23 9 2 10 l25 0 -25 13 c-14 7 -25 19 -25 27 0 8 -6 20 -14 26 -8 6
-12 18 -8 27 4 10 0 14 -11 12 -9 -1 -23 2 -29 8 -8 6 -13 6 -13 0 0 -5 -7
-10 -15 -10 -8 0 -15 3 -15 6 0 9 -166 4 -181 -5 -7 -4 -14 -3 -16 2 -4 11
-85 10 -104 -2 -7 -4 -14 -3 -16 2 -2 6 -25 9 -51 7 -26 -2 -67 -4 -92 -5 -45
-1 -87 -29 -74 -49 3 -5 -3 -9 -13 -9 -15 0 -16 -2 -3 -11 12 -9 10 -10 -8 -6
-19 5 -21 3 -11 -9 9 -11 9 -14 -1 -14 -8 0 -11 -3 -7 -6 3 -4 0 -13 -8 -21
-8 -8 -15 -23 -15 -34 0 -10 -7 -19 -15 -19 -13 0 -14 -4 -5 -20 8 -15 8 -18
-3 -14 -9 3 -17 -3 -20 -16 -3 -12 -10 -20 -15 -16 -5 3 -9 -1 -9 -9 0 -8 5
-12 11 -9 6 3 1 -4 -12 -15 -12 -11 -21 -26 -20 -33 2 -8 -7 -13 -24 -12 -21
0 -28 -5 -28 -19 0 -11 5 -15 11 -11 8 5 8 1 0 -14 -6 -11 -8 -27 -6 -35 3 -7
-2 -20 -12 -28 -16 -13 -17 -12 -4 4 9 11 10 17 2 17 -6 0 -12 -6 -12 -12 -1
-7 -2 -17 -4 -23 -1 -5 -3 -14 -4 -20 -1 -5 -5 -4 -10 4 -7 10 -9 7 -8 -12 1
-15 6 -27 11 -27 5 0 7 -3 4 -6 -4 -3 2 -14 13 -25 10 -10 19 -28 19 -40 0
-11 9 -28 21 -38 11 -9 22 -29 22 -43 2 -21 5 -24 16 -15 11 10 13 8 6 -12 -5
-16 -4 -21 4 -17 10 6 15 -14 9 -30 -2 -3 8 -12 22 -21 14 -8 17 -12 7 -9 -11
3 -15 2 -12 -4 3 -6 13 -10 21 -10 8 0 14 -9 14 -20 0 -11 7 -20 16 -20 8 0
12 -5 9 -10 -4 -6 -11 -7 -17 -4 -7 4 -8 2 -4 -5 4 -6 12 -9 17 -6 8 5 10 -3
9 -30 0 -3 11 -16 25 -29 23 -22 24 -25 9 -34 -15 -8 -15 -9 0 -15 10 -4 15
-3 11 3 -3 6 -1 10 4 10 11 0 14 -11 12 -40 0 -10 1 -11 5 -3 4 9 11 10 22 4
9 -5 25 -7 35 -6 9 2 17 -1 17 -7 0 -6 6 -5 15 2 12 10 15 10 15 -1 0 -9 3
-10 8 -4 9 13 75 14 85 0 5 -7 9 -7 15 1 7 10 68 11 78 1 3 -3 17 -2 30 3 17
7 24 6 24 -3 0 -7 3 -8 8 -2 9 13 75 14 85 0 5 -7 9 -7 15 1 8 11 62 11 80 0
6 -3 17 0 25 8 8 8 17 13 20 10 7 -8 40 43 34 53 -5 8 24 41 31 35 2 -2 7 0
10 4 4 4 1 4 -7 -1 -9 -5 -12 -3 -9 6 3 8 10 13 16 12 5 -1 9 5 8 15 0 9 5 16
12 14 6 -1 12 2 12 8 0 5 -5 10 -12 10 -6 0 -4 6 7 13 12 9 15 19 10 28 -5 8
-5 11 0 7 4 -4 14 0 22 10 8 9 11 11 7 3 -5 -9 -3 -12 4 -7 6 4 10 20 8 36 -2
22 0 27 12 23 11 -5 13 -1 7 17 -5 15 -4 20 4 16 10 -6 15 6 12 27 0 4 5 7 13
7 8 0 18 5 22 12 4 7 3 8 -4 4 -7 -4 -12 -2 -12 3 0 6 6 11 14 11 8 0 17 7 20
16 4 10 2 13 -6 8 -7 -4 -3 8 9 27 11 19 26 33 34 32 10 -2 9 1 -3 9 -15 11
-15 13 5 23 12 7 21 17 19 23 -2 11 11 16 32 13 5 -1 6 6 2 15 -5 13 -2 15 14
11 10 -3 18 0 17 5 -1 6 6 12 16 13 22 4 36 15 19 15 -6 0 -9 7 -6 15 4 8 10
12 15 9 6 -3 16 0 24 6 12 10 15 10 15 0 0 -7 6 -10 13 -7 17 6 61 -29 47 -38
-6 -3 -8 -11 -4 -16 3 -6 12 -5 22 3 13 11 15 10 9 -4 -4 -13 -2 -15 11 -11
15 6 15 5 3 -10 -17 -21 -8 -22 13 -1 15 14 16 13 16 -8 0 -13 4 -18 8 -13 4
6 27 10 52 10 25 0 48 -4 52 -10 5 -6 8 -5 8 3 0 7 5 10 10 7 6 -3 10 2 10 11
0 16 1 16 16 -2 8 -10 13 -13 9 -6 -3 6 1 15 9 18 9 3 14 9 11 14 -2 4 7 6 20
5 13 -2 23 1 22 7 -1 6 4 13 12 16 9 3 11 0 6 -8 -5 -8 -4 -11 3 -6 6 3 9 15
7 26 -2 11 0 21 6 21 5 1 13 2 18 3 5 0 13 5 18 10 4 5 3 6 -3 3 -7 -4 -14 0
-18 8 -3 9 0 15 9 15 9 0 12 6 8 17 -4 10 -2 14 5 9 7 -4 9 1 7 15 -3 13 0 28
6 36 7 7 7 13 2 13 -5 0 -9 16 -10 35 -1 24 -9 43 -24 55 -18 17 -19 20 -5 20
14 0 15 2 4 14 -7 8 -17 11 -23 8 -5 -3 -4 2 4 11 12 15 12 17 -4 10 -14 -5
-17 -3 -12 10 3 9 2 17 -2 17 -5 0 -12 -6 -14 -12 -3 -7 -6 -3 -6 10 -1 15 -7
22 -20 22 -10 0 -21 7 -25 15 -3 8 -11 15 -18 15 -9 0 -8 -3 2 -10 13 -8 12
-10 -2 -10 -10 0 -19 8 -20 18 0 9 -2 22 -3 27 -2 6 -4 15 -5 20 -6 25 -5 41
4 53 5 7 5 12 -1 12 -5 0 -9 9 -9 20 0 11 4 20 9 20 5 0 4 6 -2 14 -9 10 -9
16 -1 21 6 4 7 12 3 18 -10 15 -10 38 0 55 5 6 4 12 0 12 -5 0 -9 9 -9 20 0
11 4 20 9 20 5 0 4 6 -2 14 -9 10 -9 16 -1 21 6 4 7 12 3 18 -10 15 -10 38 0
55 5 6 4 12 0 12 -5 0 -9 9 -9 20 0 11 4 20 9 20 5 0 4 6 -2 14 -9 10 -9 16
-1 21 6 4 7 12 3 18 -10 15 -10 38 0 55 5 6 4 12 0 12 -5 0 -9 9 -9 20 0 11 4
20 9 20 5 0 4 6 -2 14 -9 10 -9 16 -1 21 6 4 7 12 3 18 -10 15 -10 38 0 55 5
6 4 12 0 12 -5 0 -9 9 -9 20 0 11 5 20 10 20 6 0 5 5 -2 12 -7 7 -8 17 -1 29
8 15 14 17 35 9 14 -6 23 -6 20 -1 -3 5 1 12 10 15 23 9 26 8 18 -6 -4 -7 2
-4 13 7 11 11 18 25 15 30 -3 6 3 3 13 -5 11 -9 16 -10 11 -3 -8 15 23 62 42
63 6 0 12 -6 12 -12 0 -9 3 -9 9 1 5 8 7 21 3 29 -3 10 -1 13 6 8 7 -4 12 -1
12 9 0 9 4 13 10 10 6 -4 7 1 3 11 -5 14 -3 16 13 10 15 -6 16 -5 7 5 -10 10
-9 15 5 26 9 8 12 12 5 9 -8 -4 -6 4 3 24 15 30 17 45 12 90 -2 14 1 28 7 32
6 5 6 8 -2 8 -9 0 -10 7 -3 24 7 20 5 27 -13 40 -20 14 -20 15 -2 9 16 -6 13
2 -15 37 -19 25 -26 38 -15 30 19 -14 19 -14 2 6 -9 11 -14 25 -10 29 5 5 0 3
-10 -4 -15 -12 -17 -12 -12 2 4 8 1 18 -6 23 -8 5 -10 3 -4 -7 8 -12 6 -12 -8
0 -9 7 -17 20 -17 28 0 8 -4 12 -9 9 -5 -3 -11 3 -14 14 -4 14 -10 18 -23 13
-11 -4 -15 -3 -11 4 4 6 0 13 -8 17 -8 3 -15 1 -15 -4 0 -5 -9 -2 -19 7 -11 9
-40 17 -66 18 -25 1 -48 5 -52 8 -3 4 -14 2 -24 -3 -12 -7 -20 -7 -24 0 -4 7
-12 7 -25 0 -10 -5 -27 -7 -37 -4 -15 5 -15 4 -3 -5 16 -11 15 -11 -40 -15 -8
-1 -16 -9 -18 -19 -2 -9 -8 -15 -13 -12 -5 4 -9 1 -9 -4 0 -6 -7 -11 -16 -11
-10 0 -14 -5 -10 -16 3 -8 2 -12 -4 -9 -6 3 -10 0 -10 -9 0 -22 -22 -26 -44
-7 -11 9 -16 11 -13 4 5 -7 0 -9 -13 -6 -11 3 -18 8 -16 12 2 3 -6 15 -17 26
l-20 20 12 -25 12 -25 -23 25 c-13 14 -32 27 -43 28 -11 2 -28 11 -37 19 -10
9 -18 13 -18 9 0 -4 -10 2 -22 13 -11 11 -26 18 -31 14 -6 -3 -7 -1 -3 5 4 7
2 12 -4 12 -6 0 -8 5 -4 13 6 9 4 9 -8 -1 -14 -11 -18 -11 -25 0 -4 7 -21 19
-37 26 -21 9 -27 18 -23 32 3 11 2 20 -3 20 -8 0 -5 43 4 59 4 5 3 12 -2 15
-10 6 -9 57 1 74 5 7 3 12 -3 12 -7 0 -10 6 -7 13 2 6 -5 23 -17 36 -11 13
-15 21 -8 17 11 -7 11 -4 1 12 -7 12 -17 18 -21 16 -10 -7 -28 38 -20 51 3 6
-2 4 -11 -4 -15 -12 -17 -12 -11 3 4 10 1 16 -9 16 -8 0 -27 13 -40 30 -16 19
-27 25 -30 17 -4 -9 -6 -9 -6 1 -1 6 -8 12 -17 12 -9 0 -12 5 -8 12 5 8 2 9
-9 5 -10 -3 -17 -2 -17 4 0 6 -4 8 -9 4 -5 -3 -12 -1 -16 5 -4 7 -13 7 -26 -1
-15 -7 -24 -7 -35 2 -8 6 -14 7 -14 2 0 -5 -9 -9 -20 -9 -11 0 -20 4 -20 8 0
5 -9 4 -19 -2 -14 -7 -21 -6 -23 2 -3 9 -6 9 -12 0z m-316 -512 c0 -5 -5 -10
-11 -10 -5 0 -7 5 -4 10 3 6 8 10 11 10 2 0 4 -4 4 -10z m211 -97 c12 -16 12
-17 -1 -7 -8 6 -22 14 -30 17 -13 5 -12 6 1 6 9 1 23 -7 30 -16z m-546 -1342
c3 -5 2 -12 -3 -15 -5 -3 -9 1 -9 9 0 17 3 19 12 6z"/>
<path d="M4240 7066 c0 -2 7 -9 15 -16 13 -11 14 -10 9 4 -5 14 -24 23 -24 12z"/>
<path d="M3665 6660 c-3 -6 1 -7 9 -4 18 7 21 14 7 14 -6 0 -13 -4 -16 -10z"/>
<path d="M4305 6570 c-3 -5 -1 -10 4 -10 6 0 11 5 11 10 0 6 -2 10 -4 10 -3 0
-8 -4 -11 -10z"/>
<path d="M4737 6503 c-4 -3 -7 -11 -7 -17 0 -6 5 -5 12 2 6 6 9 14 7 17 -3 3
-9 2 -12 -2z"/>
<path d="M3321 6311 c-8 -5 -9 -11 -3 -15 5 -3 12 1 16 9 6 17 6 18 -13 6z"/>
<path d="M5194 6008 l-19 -23 23 19 c21 18 27 26 19 26 -2 0 -12 -10 -23 -22z"/>
<path d="M3486 4801 c-3 -5 0 -11 7 -14 8 -3 14 1 14 9 0 16 -13 19 -21 5z"/>
<path d="M4800 4726 c0 -2 8 -10 18 -17 15 -13 16 -12 3 4 -13 16 -21 21 -21
13z"/>
<path d="M2816 4705 c4 -8 11 -15 16 -15 6 0 5 6 -2 15 -7 8 -14 15 -16 15 -2
0 -1 -7 2 -15z"/>
<path d="M3500 4561 c0 -6 4 -13 10 -16 6 -3 7 1 4 9 -7 18 -14 21 -14 7z"/>
<path d="M1320 4460 c-8 -5 -18 -6 -22 -4 -4 3 -8 0 -8 -6 0 -7 -6 -10 -14 -7
-7 3 -19 0 -26 -6 -10 -9 -11 -9 -6 3 5 9 2 9 -7 -2 -8 -10 -18 -14 -22 -10
-5 4 -5 -1 -1 -12 5 -14 2 -17 -9 -12 -8 3 -15 0 -15 -6 0 -6 -8 -17 -17 -25
-11 -8 -12 -11 -3 -7 13 7 13 5 2 -8 -7 -9 -22 -15 -32 -13 -11 2 -23 -1 -26
-7 -5 -7 -2 -8 6 -3 8 5 11 3 8 -6 -3 -8 -11 -13 -17 -12 -6 2 -10 0 -10 -5 3
-18 -2 -33 -9 -28 -5 3 -9 -1 -9 -9 0 -8 5 -12 10 -8 5 3 2 -6 -8 -20 -11 -17
-13 -27 -5 -32 8 -5 8 -10 0 -20 -8 -10 -8 -15 1 -20 8 -6 7 -10 -2 -16 -10
-6 -10 -9 -2 -9 9 0 10 -7 3 -25 -6 -15 -6 -26 1 -30 5 -4 7 -11 4 -16 -4 -5
2 -9 12 -10 10 0 13 -3 6 -6 -7 -2 -13 -9 -13 -14 0 -6 3 -8 8 -5 4 2 12 -7
19 -20 8 -18 8 -22 0 -17 -7 4 6 -11 28 -33 22 -22 43 -39 46 -37 4 1 14 -6
24 -17 10 -11 22 -17 26 -14 5 3 9 1 9 -5 0 -5 -6 -11 -12 -14 -7 -3 4 -4 25
-2 26 1 40 -3 47 -14 4 -9 12 -13 15 -9 4 4 18 3 31 -2 17 -7 24 -6 24 2 0 7
7 3 16 -8 8 -10 12 -13 8 -5 -5 9 -3 12 5 7 6 -4 9 -12 5 -17 -3 -5 -1 -16 6
-24 6 -7 10 -19 9 -27 -4 -21 12 -59 22 -52 6 3 8 -5 5 -20 -3 -14 0 -26 5
-26 6 0 7 -9 4 -20 -4 -11 -2 -20 4 -20 6 0 11 -5 11 -11 0 -5 -6 -7 -12 -3
-8 5 -7 1 2 -10 13 -17 20 -35 22 -63 1 -7 4 -13 7 -13 6 0 11 -26 14 -67 0
-7 4 -13 9 -13 5 0 6 -4 3 -10 -3 -5 0 -10 7 -10 10 0 10 -2 -1 -9 -10 -7 -11
-9 -1 -13 15 -5 23 -38 10 -38 -5 0 -7 -9 -5 -21 3 -15 0 -19 -11 -15 -8 3
-13 2 -11 -2 10 -15 -12 -52 -28 -46 -8 4 -15 1 -15 -6 0 -7 -8 -19 -17 -27
-10 -8 -12 -11 -4 -7 11 6 12 3 6 -12 -5 -10 -9 -33 -10 -50 -1 -17 -5 -36 -9
-42 -4 -7 -2 -12 4 -12 7 0 8 -6 1 -19 -8 -14 -7 -22 4 -31 8 -7 12 -16 9 -21
-3 -5 0 -9 5 -9 6 0 11 -7 11 -15 0 -8 5 -15 10 -15 6 0 10 -7 10 -15 0 -8 5
-15 11 -15 5 0 7 -4 4 -10 -4 -6 1 -7 11 -3 14 5 16 3 11 -12 -6 -15 -5 -16 7
-6 11 9 16 9 22 -1 5 -7 9 -16 9 -20 0 -3 4 -10 9 -15 5 -5 6 -3 2 5 -4 6 -2
12 3 12 6 0 11 -4 11 -9 0 -5 23 -9 51 -7 28 1 52 -2 55 -6 3 -4 13 -2 24 4
10 7 16 17 12 23 -3 5 2 4 11 -4 14 -11 18 -11 23 3 3 9 11 13 17 9 6 -4 8 0
4 10 -4 11 -1 17 9 17 8 0 13 4 9 9 -3 6 3 8 14 6 15 -3 18 0 14 12 -5 12 -2
15 10 10 11 -4 14 -2 11 7 -8 20 34 54 62 51 13 -1 24 3 24 9 0 6 4 5 9 -3 5
-7 14 -10 20 -7 6 4 11 2 11 -5 0 -7 10 -9 24 -7 14 3 30 1 37 -3 7 -4 21 -3
30 2 12 6 20 5 24 -1 4 -6 12 -7 18 -3 17 11 31 10 40 -2 4 -7 10 -7 15 0 4 6
15 11 25 11 15 2 16 -1 5 -14 -11 -13 -10 -14 9 -4 17 10 25 9 37 -3 8 -9 17
-11 21 -6 5 10 50 5 68 -6 6 -3 7 -1 3 5 -4 7 1 10 14 9 11 -1 20 -4 20 -7 0
-3 15 -6 33 -7 43 -3 59 -7 75 -16 6 -5 12 -4 12 2 0 10 25 9 36 -2 4 -4 13
-2 21 4 10 9 17 8 28 -1 8 -7 15 -8 15 -3 0 5 9 9 20 9 11 0 20 -3 20 -6 0 -4
6 -7 13 -8 6 -1 28 -3 49 -6 20 -2 42 -7 49 -11 7 -5 10 -4 6 3 -5 6 0 8 13 5
33 -9 22 -63 -12 -58 -10 2 -15 -2 -12 -10 4 -8 -3 -11 -21 -9 -20 2 -25 -1
-21 -12 3 -8 2 -12 -3 -9 -5 3 -12 1 -16 -5 -3 -5 -15 -10 -25 -10 -11 0 -31
-12 -46 -27 -15 -16 -23 -21 -20 -13 5 9 1 8 -7 -3 -8 -10 -19 -17 -23 -16
-29 5 -46 -2 -40 -17 4 -11 1 -14 -13 -9 -12 3 -21 0 -25 -11 -4 -10 -12 -14
-22 -10 -15 6 -15 4 -3 -11 7 -10 10 -15 5 -11 -4 4 -26 -4 -48 -18 -22 -14
-37 -20 -32 -13 4 7 -8 2 -26 -11 -18 -13 -30 -19 -26 -12 5 8 2 10 -8 6 -9
-3 -16 -12 -16 -19 0 -9 -8 -12 -21 -10 -18 4 -19 2 -7 -12 7 -10 8 -14 1 -10
-15 9 -45 -2 -37 -14 3 -6 -5 -7 -19 -3 -23 5 -25 3 -20 -18 3 -13 1 -19 -4
-13 -9 12 -28 13 -38 3 -8 -8 -55 12 -55 24 0 4 -5 8 -12 8 -6 0 -20 8 -31 18
-11 9 -17 11 -13 5 4 -7 2 -13 -3 -13 -6 0 -11 5 -11 11 0 6 -9 8 -20 4 -12
-4 -20 -2 -20 6 0 8 -4 8 -12 2 -7 -6 -25 -8 -40 -6 -21 3 -28 -1 -28 -12 0
-9 -5 -13 -10 -10 -6 4 -8 12 -4 18 3 7 -3 2 -14 -10 -11 -12 -23 -19 -27 -15
-5 4 -5 -1 -2 -10 3 -10 3 -17 -1 -15 -4 1 -18 -8 -31 -20 -13 -12 -28 -20
-33 -17 -5 3 -8 2 -7 -3 3 -20 -2 -34 -11 -28 -6 4 -7 -1 -3 -11 4 -12 3 -15
-5 -10 -8 5 -10 1 -5 -10 4 -12 3 -15 -5 -10 -8 5 -10 1 -5 -10 5 -12 3 -15
-6 -9 -10 5 -11 3 -4 -11 5 -11 8 -33 6 -51 -1 -18 2 -35 7 -38 5 -3 7 -12 4
-20 -4 -8 1 -18 10 -21 9 -3 16 -15 16 -26 0 -12 4 -17 12 -12 8 5 9 2 5 -9
-3 -10 -2 -17 4 -17 6 0 7 -6 3 -12 -5 -9 -2 -9 9 1 15 11 17 11 17 -2 0 -8
-6 -18 -12 -21 -7 -3 -3 -3 8 -1 12 3 28 0 36 -8 7 -7 23 -13 35 -12 15 1 20
-3 18 -17 -2 -9 0 -20 4 -22 9 -6 8 -37 -3 -54 -4 -6 -3 -12 2 -12 10 0 9 -30
-2 -48 -4 -6 -3 -12 2 -12 10 0 9 -30 -2 -48 -4 -6 -3 -12 2 -12 9 0 8 -42 -1
-57 -3 -5 -2 -15 3 -23 5 -9 5 -19 -2 -27 -6 -8 -6 -13 -1 -13 11 0 11 -29 -1
-48 -4 -6 -3 -12 2 -12 10 0 9 -30 -2 -48 -4 -6 -3 -12 2 -12 10 0 9 -30 -2
-48 -4 -6 -3 -12 2 -12 10 0 9 -30 -2 -48 -4 -6 -3 -12 1 -12 5 0 9 -9 9 -20
0 -11 -4 -20 -9 -20 -5 0 -4 -7 3 -15 10 -12 10 -15 -1 -15 -9 0 -10 -3 -4 -8
6 -4 10 -13 9 -19 -1 -7 -2 -17 -3 -23 0 -5 -8 -10 -17 -10 -9 0 -23 -8 -31
-17 -14 -17 -14 -17 -9 0 7 23 2 22 -35 -12 -17 -16 -40 -28 -50 -26 -13 3
-16 -1 -12 -13 6 -15 5 -15 -11 -3 -9 8 -16 10 -14 5 2 -5 0 -10 -4 -11 -18
-6 -28 -2 -28 11 0 8 -9 14 -19 13 -11 0 -17 -6 -15 -12 3 -5 -2 -1 -11 10 -9
11 -21 20 -28 20 -6 0 -17 11 -24 25 -8 15 -19 24 -30 22 -15 -3 -15 -2 -2 14
13 16 12 16 -10 4 -22 -11 -23 -10 -17 5 6 16 4 16 -11 4 -15 -12 -16 -12 -10
3 4 13 2 15 -10 11 -12 -5 -14 -3 -8 7 6 10 3 12 -13 8 -15 -4 -19 -2 -15 8 3
8 0 14 -6 14 -6 0 -20 9 -31 20 -11 11 -27 20 -35 20 -8 0 -15 5 -15 10 0 6
-7 10 -15 10 -8 0 -15 5 -15 11 0 5 -4 7 -10 4 -5 -3 -10 -2 -10 4 0 5 6 12
13 14 9 4 9 6 0 6 -6 1 -15 -4 -18 -9 -3 -6 -17 3 -31 20 -14 16 -30 29 -37
27 -14 -3 -16 24 -3 42 8 11 8 13 -2 7 -6 -4 -12 -2 -12 4 0 6 7 13 15 16 12
5 13 9 4 20 -9 12 -9 13 3 9 11 -5 14 1 13 25 -1 17 2 33 7 36 5 3 4 12 -3 20
-9 11 -9 17 1 29 10 12 10 15 0 15 -7 0 -10 8 -7 20 3 11 2 18 -3 15 -4 -3
-11 2 -14 11 -4 10 -2 13 7 9 6 -4 5 -1 -4 7 -9 7 -16 15 -17 18 -7 40 -52
125 -52 99 0 -9 7 -22 15 -29 8 -7 15 -17 15 -23 0 -6 -11 3 -23 21 -13 17
-28 28 -33 24 -4 -4 -2 1 5 10 11 15 10 17 -8 13 -15 -3 -18 0 -14 12 4 10 2
14 -4 10 -6 -4 -13 3 -16 14 -3 12 -10 18 -15 15 -12 -7 -64 19 -55 27 3 4 1
7 -4 7 -6 0 -14 -6 -16 -12 -3 -8 -6 -5 -6 5 -1 10 -5 16 -10 12 -5 -3 -12 -1
-16 4 -4 7 -15 7 -30 1 -17 -7 -25 -6 -25 1 0 8 -5 7 -15 -1 -12 -10 -15 -10
-15 1 0 9 -3 10 -8 4 -4 -5 -25 -11 -47 -13 -22 -2 -45 -8 -52 -14 -7 -5 -17
-7 -22 -4 -10 6 -51 -31 -51 -46 0 -4 -5 -8 -11 -8 -5 0 -7 5 -3 12 5 7 3 8
-5 4 -7 -5 -10 -15 -6 -23 5 -14 3 -14 -12 -2 -11 9 -14 10 -9 2 4 -7 2 -13
-3 -13 -6 0 -11 -5 -11 -11 0 -5 5 -7 10 -4 15 9 12 -1 -4 -14 -11 -9 -16 -9
-22 0 -5 8 -3 9 6 4 9 -6 11 -4 6 4 -9 15 -19 7 -22 -17 -2 -9 -8 -18 -13 -20
-6 -2 -11 -12 -11 -23 0 -10 -5 -19 -11 -19 -8 0 -7 -6 2 -17 7 -10 9 -15 5
-11 -14 12 -36 -25 -24 -39 7 -9 7 -17 -2 -28 -7 -9 -8 -15 -2 -15 12 0 11
-18 -2 -39 -7 -11 -6 -12 5 -6 12 7 12 6 1 -7 -9 -11 -10 -18 -2 -23 6 -4 8
-16 4 -27 -4 -15 -3 -18 6 -13 9 5 11 4 6 -4 -4 -6 -2 -19 6 -28 11 -14 11
-16 -2 -9 -8 4 -6 0 4 -8 11 -9 16 -16 10 -16 -5 0 -1 -5 8 -11 10 -5 15 -16
12 -24 -4 -8 -1 -15 4 -15 18 0 43 -32 37 -48 -4 -12 -3 -12 9 -3 11 9 16 9
22 -1 5 -7 9 -17 9 -22 0 -5 11 -11 25 -13 14 -2 26 -8 28 -13 2 -6 10 -10 18
-10 9 0 12 -5 8 -12 -6 -10 -4 -10 7 0 17 15 33 16 23 0 -5 -8 -2 -9 9 -5 10
3 17 2 17 -4 0 -6 4 -8 9 -4 5 3 12 1 16 -5 4 -6 11 -8 16 -5 19 12 49 13 49
2 0 -8 3 -8 8 -2 4 6 18 12 32 14 14 1 27 6 30 10 9 12 71 41 64 30 -4 -7 1
-7 15 1 12 6 19 15 16 20 -6 10 29 23 69 25 20 1 30 -5 34 -17 2 -10 9 -18 14
-18 5 0 6 -6 2 -12 -6 -10 -5 -10 7 -1 11 9 21 6 46 -17 17 -16 29 -31 26 -34
-6 -5 21 -10 40 -7 4 0 7 -3 7 -9 0 -19 3 -25 19 -36 8 -7 21 -10 28 -7 7 3
13 0 13 -7 0 -6 5 -8 11 -4 8 4 9 -1 4 -17 -4 -18 -4 -20 4 -10 7 12 13 12 24
3 7 -7 18 -8 22 -4 5 4 5 1 1 -5 -4 -7 -3 -13 2 -13 5 0 12 -9 15 -20 4 -14
10 -18 23 -13 12 4 15 3 10 -6 -6 -9 -2 -12 14 -9 14 2 25 -3 27 -12 4 -13 3
-13 -7 0 -10 13 -11 13 -7 0 2 -8 12 -13 22 -12 16 3 17 1 7 -11 -10 -12 -8
-13 14 -9 19 3 25 1 20 -7 -4 -6 -1 -11 6 -11 8 0 9 -3 3 -8 -6 -4 -10 -19
-10 -34 1 -16 -3 -28 -7 -28 -5 0 -6 -11 -4 -24 2 -14 -1 -27 -7 -30 -8 -3 -9
-7 -2 -13 12 -10 14 -83 2 -83 -4 0 -5 -6 0 -12 4 -7 8 -17 8 -23 1 -5 6 -9
12 -8 6 1 9 -6 5 -19 -3 -14 -1 -19 6 -14 6 3 14 1 18 -5 4 -7 3 -9 -4 -5 -6
4 -10 -1 -9 -13 0 -11 5 -17 9 -15 4 3 8 -3 8 -13 0 -15 2 -16 10 -3 8 12 10
10 10 -10 0 -15 11 -32 28 -44 l27 -19 -25 29 c-21 24 -19 24 12 -5 21 -19 35
-38 32 -42 -6 -10 31 -31 40 -22 3 3 16 -2 28 -13 21 -19 21 -19 15 1 -7 20
-7 20 8 1 14 -19 55 -30 55 -16 0 4 7 7 15 7 8 0 15 -5 15 -11 0 -7 3 -7 8 -1
11 15 32 17 48 4 10 -8 14 -8 14 0 0 7 8 8 26 1 16 -7 23 -7 19 0 -6 9 -2 11
35 14 8 1 14 8 12 14 -2 10 3 10 18 2 16 -9 19 -8 13 7 -5 13 -3 15 11 10 10
-4 15 -3 11 3 -3 6 -1 10 5 10 6 0 8 4 5 10 -3 6 1 7 9 4 10 -4 16 -1 16 9 0
9 6 20 14 24 8 4 24 27 36 51 12 23 24 42 27 42 2 0 1 -6 -3 -13 -4 -7 -3 -8
2 -4 9 8 10 12 12 55 2 16 6 21 15 16 8 -5 8 -2 -2 9 -12 15 -11 17 3 17 14 0
15 4 6 20 -7 14 -8 26 0 39 7 14 7 22 0 26 -6 4 -8 11 -5 16 4 5 2 9 -4 9 -6
0 -7 7 -4 17 4 11 3 14 -5 9 -16 -10 -15 6 1 23 10 11 10 13 0 7 -8 -4 -13 -1
-13 7 0 8 -7 17 -15 21 -11 4 -14 14 -9 33 4 22 3 25 -5 13 -9 -13 -11 -12
-11 3 0 12 -4 16 -12 11 -9 -5 -8 -2 1 9 12 15 12 17 -4 10 -14 -5 -17 -3 -12
10 3 9 1 19 -5 23 -7 4 -8 3 -4 -4 4 -7 2 -12 -4 -12 -6 0 -13 7 -16 15 -4 8
-10 12 -15 9 -5 -3 -9 3 -9 13 0 15 -2 16 -10 3 -8 -13 -10 -13 -10 1 0 9 -8
23 -17 30 -14 12 -16 12 -9 0 6 -9 5 -12 -5 -9 -8 3 -13 10 -12 16 1 5 -7 8
-17 5 -12 -3 -20 0 -20 7 0 9 -4 9 -13 2 -16 -14 -32 -3 -42 27 -6 18 -4 22 6
15 11 -6 12 -5 2 7 -10 12 -10 18 -1 27 9 9 9 12 -2 12 -13 0 -13 2 0 10 10 6
11 10 3 10 -13 0 -13 26 0 48 5 6 4 12 0 12 -5 0 -9 9 -10 20 -1 11 2 18 8 15
5 -4 6 3 1 17 -9 26 -8 75 1 85 4 3 2 12 -4 20 -9 10 -8 17 1 28 7 9 8 15 2
15 -12 0 -11 18 2 39 7 11 6 12 -5 6 -12 -7 -12 -6 -1 7 7 9 9 18 5 21 -10 6
-9 109 1 125 4 7 3 12 -1 12 -10 0 -10 41 1 58 4 7 3 12 -3 12 -5 0 -8 8 -6
18 1 9 8 16 14 14 6 -1 11 4 11 12 0 8 5 18 12 22 7 5 9 2 4 -7 -4 -8 2 -3 13
11 18 21 20 22 15 5 -5 -18 -5 -18 6 -2 6 10 16 14 23 10 8 -4 7 -1 -1 9 -9
11 -10 18 -2 23 5 3 10 3 10 -2 0 -4 5 0 11 10 6 9 15 14 21 11 8 -5 9 -1 5
10 -5 13 -1 19 13 23 15 4 19 11 14 25 -4 14 -2 18 5 14 7 -4 12 1 12 13 1 12
2 27 3 34 1 6 0 16 -3 22 -8 16 -8 45 0 45 4 0 6 8 5 17 -3 22 33 53 53 45 9
-3 12 -1 7 6 -3 6 3 13 14 17 11 3 20 11 20 16 0 6 8 5 20 -1 11 -6 20 -7 19
-3 -4 23 2 32 18 26 12 -5 14 -3 8 8 -7 11 -5 11 10 -1 17 -14 18 -13 12 4 -6
16 -5 17 8 6 13 -11 16 -11 13 1 -2 8 5 14 14 14 9 0 20 4 25 9 5 5 2 6 -6 1
-10 -6 -12 -4 -7 4 6 9 11 9 21 1 11 -10 13 -8 10 9 -2 12 0 19 6 16 5 -4 9
-1 9 5 0 6 5 8 11 5 5 -4 20 1 31 12 12 10 18 13 15 6 -4 -6 -3 -15 3 -18 6
-4 10 -3 9 2 -3 20 2 34 11 28 6 -3 10 -1 10 5 0 6 5 8 10 5 6 -3 13 0 16 9 3
8 14 13 24 11 14 -3 17 1 13 13 -6 15 -5 15 11 3 9 -8 16 -10 15 -5 -4 22 2
33 15 28 7 -3 16 2 19 10 4 9 15 13 27 11 13 -3 20 1 20 12 0 9 3 13 7 10 3
-4 13 -1 21 6 13 10 14 9 7 -3 -4 -8 2 -5 14 8 26 26 25 26 45 6 10 -10 16
-11 16 -3 0 8 4 8 13 1 6 -6 17 -10 22 -10 6 1 16 -10 22 -23 7 -13 13 -18 13
-11 0 10 5 10 21 2 11 -7 23 -9 26 -6 3 2 16 1 30 -5 16 -6 22 -6 18 1 -4 7 2
9 19 4 16 -4 26 -2 26 5 0 6 8 11 18 11 14 0 15 -2 2 -10 -11 -7 -11 -10 -2
-10 7 0 17 10 22 23 5 12 9 18 9 13 1 -5 9 -2 18 5 11 10 14 10 9 2 -17 -30 4
-10 29 27 16 23 34 39 40 36 6 -2 11 5 11 18 -1 13 4 20 14 18 10 -1 9 2 -4
13 -18 14 -18 15 -2 15 9 0 14 5 11 10 -3 6 -1 10 6 10 8 0 8 4 -1 15 -10 12
-10 15 1 15 12 0 12 2 1 9 -16 9 -15 20 1 40 9 12 9 13 0 7 -13 -7 -17 2 -14
39 2 17 0 17 -8 5 -10 -13 -11 -13 -12 0 -1 8 -1 18 0 23 0 4 -5 7 -11 7 -9 0
-8 4 2 10 13 8 12 10 -3 10 -15 0 -16 3 -6 21 8 15 8 19 0 15 -22 -14 -10 24
16 51 14 15 23 22 18 14 -6 -10 -4 -12 4 -7 9 6 9 11 -1 24 -11 14 -10 15 6 9
13 -5 17 -3 13 6 -3 8 -1 20 4 28 8 12 10 12 19 -1 6 -9 10 -10 10 -3 0 6 -4
15 -10 18 -5 3 -10 12 -9 18 0 9 2 9 6 0 2 -7 9 -13 15 -13 5 0 8 6 5 13 -6
18 12 49 25 41 6 -4 8 -3 4 4 -3 6 0 14 7 19 8 4 20 19 27 32 9 17 9 21 0 16
-8 -5 -7 0 2 14 16 25 33 28 23 4 -5 -14 -4 -15 6 -6 10 10 9 16 -2 29 -8 10
-9 15 -2 11 11 -7 30 28 25 46 -1 4 12 14 29 21 18 8 26 15 19 18 -10 3 -9 11
5 36 10 17 23 28 29 25 5 -4 7 0 4 8 -5 13 16 43 26 37 2 -2 8 1 13 6 5 5 3 6
-4 2 -7 -4 -13 -3 -13 3 0 5 9 13 20 16 11 3 20 11 20 17 0 6 -7 5 -17 -3 -17
-13 -17 -13 -3 6 8 11 21 24 28 28 6 4 12 17 12 28 0 13 4 18 12 13 7 -5 9 -2
6 7 -5 13 11 36 29 42 4 1 9 11 11 22 1 10 8 23 15 27 8 5 8 8 1 8 -7 0 -15 7
-18 16 -3 8 -2 13 3 10 4 -3 6 6 3 20 -3 17 -7 22 -12 14 -5 -9 -9 -9 -11 -1
-2 6 -14 13 -27 16 -20 3 -21 2 -10 -18 10 -20 10 -21 -6 -8 -14 12 -16 12
-10 -4 6 -14 4 -16 -7 -10 -8 4 -11 5 -7 0 4 -4 0 -21 -8 -38 -13 -24 -18 -27
-26 -16 -8 11 -9 10 -4 -4 6 -18 -16 -62 -25 -52 -3 2 -11 -11 -18 -30 -7 -20
-17 -33 -23 -29 -6 4 -9 1 -6 -7 7 -20 -11 -51 -24 -43 -6 4 -8 3 -4 -4 3 -6
1 -14 -6 -19 -7 -4 -23 -22 -35 -39 -17 -24 -19 -34 -10 -44 9 -10 9 -11 0 -6
-7 4 -13 3 -13 -1 0 -5 -7 -18 -16 -29 -8 -10 -12 -13 -8 -5 4 9 3 12 -4 7 -6
-4 -8 -14 -5 -23 5 -13 2 -15 -12 -10 -14 6 -16 5 -6 -7 9 -11 7 -15 -10 -19
-11 -3 -18 -10 -15 -15 8 -14 -4 -43 -15 -36 -5 3 -6 -3 -2 -12 5 -13 3 -15
-7 -9 -9 6 -12 4 -8 -6 5 -14 -10 -36 -24 -35 -3 1 -10 -3 -15 -8 -5 -5 -3 -6
5 -2 16 10 15 -2 -2 -19 -7 -8 -17 -11 -22 -7 -5 4 -2 -1 6 -11 11 -16 11 -18
-1 -15 -9 2 -13 -4 -11 -16 3 -17 2 -18 -12 -7 -14 12 -16 11 -10 -3 3 -9 1
-16 -5 -16 -6 0 -8 -6 -5 -13 3 -8 -2 -20 -10 -27 -9 -7 -13 -16 -10 -21 3 -5
-6 -9 -20 -9 -14 0 -26 -4 -26 -8 0 -12 -32 -11 -47 1 -7 5 -13 5 -13 0 0 -5
-9 -9 -20 -9 -11 0 -20 3 -20 7 0 4 -17 -1 -37 -11 -21 -10 -42 -16 -48 -12
-5 3 -7 2 -3 -2 3 -4 -7 -21 -23 -37 -16 -16 -29 -35 -29 -41 0 -6 -3 -9 -6
-5 -8 8 -55 -34 -48 -44 2 -4 0 -10 -6 -14 -5 -3 -10 -1 -10 6 0 8 -5 7 -17
-2 -14 -12 -16 -12 -8 0 6 11 4 13 -8 8 -10 -3 -17 -2 -17 4 0 6 -9 8 -20 4
-12 -4 -20 -2 -20 5 0 6 -5 8 -12 3 -22 -13 -48 -13 -48 0 0 8 -4 7 -10 -3 -8
-12 -10 -12 -10 -1 0 11 -3 11 -15 1 -12 -10 -18 -10 -29 -1 -11 9 -16 9 -21
0 -6 -8 -10 -7 -16 2 -7 11 -9 11 -9 1 0 -8 -5 -10 -12 -5 -15 9 -32 13 -68
16 -14 1 -30 6 -36 9 -6 4 -14 4 -18 0 -11 -10 -30 -9 -38 3 -5 7 -11 7 -15 0
-5 -5 -16 -11 -26 -11 -15 -2 -16 1 -5 14 11 13 10 14 -9 4 -17 -10 -25 -9
-37 3 -8 9 -17 11 -21 6 -5 -10 -50 -5 -68 6 -6 3 -7 1 -3 -5 4 -7 3 -12 -3
-12 -5 0 -13 5 -16 10 -4 6 -13 7 -23 2 -24 -12 -41 -9 -52 8 -8 12 -10 12
-10 1 0 -11 -3 -11 -15 -1 -8 7 -15 9 -15 4 0 -5 -5 -2 -10 6 -5 8 -10 10 -10
4 0 -9 -38 -12 -47 -4 -4 4 -21 7 -39 9 -8 0 -12 6 -9 11 3 6 2 10 -3 10 -6 0
-13 7 -16 16 -5 12 -3 14 7 8 7 -5 5 -2 -4 7 -14 13 -15 19 -6 28 9 9 8 11 -7
5 -15 -6 -18 -4 -13 9 3 9 1 19 -5 23 -7 4 -8 3 -4 -4 4 -7 2 -12 -5 -12 -7 0
-9 8 -6 21 3 12 3 18 0 15 -3 -3 -17 4 -31 15 -20 15 -27 17 -34 7 -6 -10 -8
-9 -8 2 0 15 -15 20 -72 23 -16 1 -28 6 -28 10 0 5 -4 6 -9 3 -5 -3 -11 1 -15
9 -3 8 -1 17 5 21 7 4 5 12 -5 23 -9 10 -13 21 -10 24 4 4 1 14 -7 23 -8 10
-13 19 -11 21 7 10 0 23 -10 17 -9 -5 -9 -2 1 9 11 13 11 17 1 17 -8 0 -10 3
-7 7 4 3 1 13 -6 21 -10 13 -9 14 3 7 12 -6 13 -5 3 6 -7 7 -13 24 -13 37 0
13 -4 21 -9 17 -5 -3 -13 0 -17 6 -4 7 -3 9 4 5 6 -4 10 1 9 13 0 11 -4 18 -8
15 -3 -2 -10 15 -14 39 -4 23 -10 51 -12 62 -3 11 -6 25 -7 32 -1 7 -5 15 -8
19 -11 10 3 34 16 27 6 -4 6 0 -2 9 -10 13 -10 18 -1 24 8 5 9 3 4 -6 -6 -9
-4 -11 4 -6 7 5 10 14 7 22 -3 7 0 11 7 8 7 -2 26 9 42 26 22 23 25 29 11 24
-14 -5 -17 -4 -12 4 9 16 33 15 40 0 3 -7 2 0 -1 16 -4 19 -2 27 5 22 6 -4 13
10 17 34 4 27 11 38 18 33 7 -4 6 1 -2 10 -12 15 -11 17 3 17 14 0 15 4 6 20
-7 14 -8 26 0 39 7 14 7 22 0 26 -6 4 -8 11 -5 16 4 5 1 9 -6 9 -8 0 -8 4 1
15 11 13 10 14 -2 10 -9 -4 -18 1 -22 10 -3 9 -2 13 4 10 6 -3 7 1 4 9 -3 9
-13 16 -22 16 -8 0 -13 3 -9 6 9 9 -22 66 -33 59 -5 -3 -12 0 -16 6 -4 8 -3 9
4 5 7 -4 12 -2 12 3 0 6 -5 11 -10 11 -6 0 -22 12 -35 26 -14 15 -25 21 -25
15 0 -7 -5 -9 -10 -6 -6 4 -8 11 -5 16 4 5 -1 9 -10 9 -10 0 -13 -5 -9 -12 9
-14 -26 10 -38 27 -5 6 -8 4 -8 -4 0 -11 -3 -12 -12 -3 -6 6 -18 8 -27 4 -19
-9 -42 -9 -56 0 -6 4 -17 3 -25 -2z m270 -494 c0 -2 -8 -10 -17 -17 -16 -13
-17 -12 -4 4 13 16 21 21 21 13z m1810 -236 c0 -5 -5 -10 -11 -10 -5 0 -7 5
-4 10 3 6 8 10 11 10 2 0 4 -4 4 -10z m-20 -24 c0 -2 -8 -10 -17 -17 -16 -13
-17 -12 -4 4 13 16 21 21 21 13z m-40 -230 c0 -3 -4 -8 -10 -11 -5 -3 -10 -1
-10 4 0 6 5 11 10 11 6 0 10 -2 10 -4z m-543 -341 c0 -8 -4 -12 -9 -9 -5 3 -6
10 -3 15 9 13 12 11 12 -6z m-157 -245 c0 -5 -5 -10 -11 -10 -5 0 -7 5 -4 10
3 6 8 10 11 10 2 0 4 -4 4 -10z m-820 -284 c0 -2 -8 -10 -17 -17 -16 -13 -17
-12 -4 4 13 16 21 21 21 13z m-390 -1056 c0 -5 -2 -10 -4 -10 -3 0 -8 5 -11
10 -3 6 -1 10 4 10 6 0 11 -4 11 -10z m385 -630 c3 -6 -1 -7 -9 -4 -18 7 -21
14 -7 14 6 0 13 -4 16 -10z"/>
<path d="M6545 4460 c-4 -6 -15 -10 -25 -7 -13 3 -17 0 -13 -9 5 -13 -12 -19
-44 -15 -8 1 -10 -5 -6 -15 4 -12 3 -15 -5 -10 -7 4 -12 3 -12 -3 0 -17 -32
-42 -46 -37 -7 3 -16 0 -20 -6 -5 -7 -2 -8 6 -3 8 5 11 3 8 -6 -3 -8 -10 -13
-16 -12 -6 1 -9 -9 -7 -22 1 -13 -1 -22 -5 -20 -5 3 -11 -2 -14 -11 -3 -8 -12
-12 -18 -9 -7 4 -4 -1 6 -9 17 -14 17 -16 3 -16 -10 0 -15 -7 -12 -20 2 -11
-2 -20 -8 -20 -8 0 -8 -3 1 -9 8 -4 14 -12 14 -16 0 -4 -6 -12 -14 -16 -10 -7
-10 -9 0 -9 9 0 10 -5 2 -19 -7 -14 -7 -22 0 -26 6 -4 8 -11 5 -16 -4 -5 -1
-9 6 -9 9 0 9 -3 0 -14 -9 -11 -9 -16 0 -22 8 -5 9 -3 4 6 -5 9 -4 11 3 6 7
-4 12 -14 12 -22 0 -18 25 -46 34 -37 3 4 6 -1 6 -11 0 -9 -4 -14 -10 -11 -5
3 -10 1 -10 -5 0 -7 8 -9 19 -5 14 4 20 -1 25 -20 4 -14 12 -25 18 -25 9 0 9
3 0 12 -7 7 -12 17 -12 22 0 6 7 0 16 -12 8 -12 12 -28 8 -35 -5 -8 -2 -8 9 2
19 15 20 12 19 -42 0 -18 3 -25 11 -20 7 4 4 -5 -6 -21 -10 -15 -20 -40 -22
-54 -2 -15 -7 -26 -13 -25 -6 1 -8 -10 -5 -27 2 -18 0 -30 -7 -30 -6 0 -10 -6
-9 -12 3 -27 -1 -39 -12 -32 -8 4 -8 0 0 -15 9 -17 9 -22 -2 -27 -15 -5 -19
-34 -5 -34 5 0 2 -7 -6 -16 -9 -8 -16 -20 -16 -25 0 -6 -5 -7 -11 -3 -8 4 -8
0 0 -15 9 -16 9 -21 0 -21 -6 0 -9 -7 -5 -15 3 -8 1 -15 -4 -15 -5 0 -7 -8 -5
-19 2 -12 -5 -22 -21 -30 -20 -9 -24 -8 -18 1 5 7 -5 5 -20 -6 -16 -10 -26
-14 -23 -9 3 5 -4 9 -15 8 -12 -1 -24 -8 -26 -16 -3 -11 -1 -11 8 1 10 13 11
13 7 0 -2 -8 -14 -14 -26 -13 -14 2 -21 -3 -21 -13 0 -14 -3 -14 -15 -4 -13
11 -14 10 -10 -2 7 -19 -20 -42 -37 -32 -8 5 -8 1 2 -11 8 -10 11 -16 5 -13
-5 3 -19 -4 -30 -15 -11 -11 -14 -16 -6 -12 11 6 13 4 8 -9 -4 -10 -7 -20 -7
-22 0 -3 -4 -3 -9 0 -4 3 -7 -6 -5 -20 2 -21 0 -23 -12 -13 -8 6 -14 7 -14 2
0 -6 -10 -9 -22 -9 -13 1 -29 -2 -35 -7 -7 -5 -13 -6 -13 -2 0 4 -6 3 -13 -3
-8 -7 -18 -7 -27 -2 -8 5 -21 5 -30 0 -9 -5 -22 -5 -30 0 -8 5 -27 3 -48 -6
-43 -18 -43 -18 -35 4 4 13 2 12 -10 -4 -13 -18 -42 -24 -67 -14 -3 1 -9 1
-15 0 -31 -7 -56 -6 -61 1 -7 12 -34 -1 -34 -18 0 -8 -5 -11 -10 -8 -6 4 -7
11 -4 17 4 6 -3 4 -16 -5 -18 -12 -27 -14 -37 -5 -7 6 -13 6 -13 2 0 -8 -46
-10 -75 -4 -24 5 -46 -1 -39 -11 4 -8 0 -9 -15 -4 -14 4 -21 2 -21 -7 0 -10
-3 -9 -10 2 -5 8 -10 10 -10 4 0 -6 -7 -11 -15 -11 -8 0 -15 5 -15 10 0 5 -7
4 -15 -3 -12 -10 -19 -10 -27 -2 -8 8 -17 8 -30 1 -13 -7 -18 -6 -18 3 0 9 -3
9 -12 0 -9 -9 -17 -7 -35 10 -13 12 -23 17 -23 11 0 -6 5 -14 10 -16 6 -3 5
-4 -2 -3 -7 1 -15 13 -19 27 -4 13 -8 20 -9 14 -1 -5 -5 0 -11 13 -5 13 -13
20 -19 17 -14 -9 -12 8 3 25 10 12 9 12 -3 4 -20 -14 -39 -12 -49 5 -5 8 -16
11 -26 7 -14 -5 -16 -4 -6 7 9 12 5 14 -24 12 -19 -1 -35 3 -35 9 0 7 -3 8 -8
1 -11 -16 -33 -17 -50 -3 -13 11 -14 11 -8 0 7 -11 4 -11 -15 0 -25 14 -45 36
-49 53 -1 6 -6 15 -12 22 -5 7 -7 17 -3 23 4 6 1 9 -5 8 -6 -2 -19 8 -28 22
-9 13 -11 21 -5 17 9 -6 11 -3 7 7 -3 9 -12 12 -22 8 -15 -5 -16 -4 -2 13 10
13 11 16 2 11 -9 -5 -15 -1 -19 13 -3 11 -10 18 -15 15 -5 -3 -8 2 -6 12 2 11
-2 18 -10 16 -9 -1 -11 6 -6 25 4 22 3 25 -5 13 -9 -13 -11 -13 -11 1 0 9 -7
19 -15 23 -8 3 -15 11 -15 17 0 8 5 7 18 -2 14 -11 14 -10 -2 8 -10 13 -23 20
-28 17 -4 -3 -7 -2 -6 3 4 14 -32 73 -45 73 -8 0 -7 4 3 10 13 8 13 10 -2 10
-9 0 -20 4 -23 10 -4 6 1 7 10 3 15 -5 15 -3 4 16 -8 11 -21 21 -29 21 -13 0
-13 1 0 10 13 8 12 10 -3 10 -10 0 -15 5 -12 10 3 6 1 10 -5 10 -6 0 -9 4 -6
9 3 4 -6 21 -19 37 -14 16 -25 35 -25 42 0 6 -5 12 -11 12 -5 0 -7 5 -4 10 3
6 0 10 -7 10 -9 0 -9 3 2 10 13 8 12 10 -2 10 -17 0 -23 12 -19 34 1 5 -6 3
-15 -5 -9 -8 -19 -12 -21 -11 -3 2 -14 -6 -24 -17 -11 -12 -15 -21 -9 -21 7 0
4 -7 -4 -16 -20 -19 -20 -21 -1 -21 8 0 11 5 8 10 -3 6 -1 7 6 3 9 -6 9 -11 0
-22 -9 -11 -8 -14 5 -14 11 0 16 -9 16 -26 0 -14 4 -23 9 -19 5 3 12 1 16 -5
3 -5 2 -10 -4 -10 -6 0 -8 -7 -5 -15 4 -8 10 -12 15 -9 8 5 13 -10 10 -30 -1
-5 6 -6 15 -2 14 5 15 4 4 -9 -10 -12 -9 -15 5 -15 10 0 15 -3 12 -7 -4 -3 2
-13 14 -21 11 -8 18 -20 15 -28 -3 -8 1 -14 9 -14 8 0 14 -3 14 -7 -3 -21 2
-44 9 -39 4 2 14 -5 22 -17 12 -20 12 -21 -3 -8 -10 8 -17 9 -17 3 0 -6 9 -14
20 -17 11 -3 20 -11 20 -16 0 -6 -5 -7 -12 -3 -7 4 -8 3 -4 -4 4 -6 14 -8 24
-5 14 5 15 3 4 -8 -10 -11 -8 -16 10 -27 15 -8 16 -11 5 -8 -11 3 -15 2 -12
-4 3 -6 12 -10 20 -10 19 0 28 -17 14 -26 -8 -5 -9 -3 -4 6 5 9 4 11 -4 6 -6
-4 -9 -12 -5 -17 3 -5 9 -7 14 -4 5 3 11 1 15 -5 3 -5 1 -10 -6 -10 -6 0 -1
-11 13 -23 14 -13 29 -34 33 -47 6 -18 9 -20 16 -9 6 9 7 4 3 -15 -4 -16 -3
-27 2 -24 5 3 18 -6 29 -21 19 -26 19 -26 0 -11 -18 13 -19 13 -8 0 6 -8 12
-18 12 -23 1 -13 20 -43 21 -32 0 6 -5 16 -12 23 -9 9 -9 12 -1 12 13 0 28
-38 19 -47 -3 -4 -1 -12 5 -19 7 -8 6 -14 -2 -20 -8 -4 -9 -3 -5 4 4 7 2 12
-3 12 -6 0 -11 -5 -11 -11 0 -5 -5 -7 -11 -3 -8 4 -8 0 0 -15 10 -17 9 -20 -5
-14 -13 5 -15 2 -9 -17 5 -15 4 -20 -4 -16 -10 7 -17 -16 -11 -39 7 -28 5 -71
-3 -76 -5 -3 -2 -12 6 -20 7 -8 12 -20 9 -27 -2 -6 1 -12 8 -12 6 0 9 -4 6 -9
-3 -5 1 -11 9 -15 8 -3 15 -12 15 -21 0 -8 6 -15 13 -15 8 0 22 -10 33 -22
l19 -23 -24 20 -25 20 20 -26 c11 -16 22 -23 26 -16 4 7 12 4 23 -6 20 -20 29
-22 20 -4 -4 6 1 3 9 -7 9 -11 16 -15 16 -10 0 6 7 11 15 11 8 0 15 -5 15 -10
0 -6 5 -6 13 0 6 6 24 8 40 6 20 -3 27 1 27 12 0 9 5 13 10 10 6 -4 8 -12 4
-18 -3 -7 3 -2 13 11 12 15 25 21 36 16 13 -5 16 -2 10 12 -4 12 -3 15 6 10 6
-4 18 -2 26 4 10 8 15 9 15 2 0 -7 7 -9 17 -5 10 4 14 2 10 -4 -5 -7 1 -9 15
-5 14 3 19 2 14 -6 -5 -8 0 -12 13 -12 26 0 71 -21 71 -32 0 -5 5 -6 10 -3 6
3 13 0 16 -9 3 -8 12 -12 20 -9 8 3 14 -1 14 -11 0 -9 8 -16 20 -16 11 0 20
-7 20 -15 0 -8 5 -15 11 -15 5 0 7 4 4 10 -3 6 1 7 9 4 9 -3 13 -10 10 -15 -3
-5 -1 -9 5 -9 5 0 12 6 14 13 3 6 6 2 6 -11 1 -22 19 -26 33 -7 4 6 8 2 8 -8
0 -10 5 -15 10 -12 6 3 10 1 10 -5 0 -7 6 -10 14 -7 8 3 20 -2 28 -11 12 -15
11 -16 -4 -3 -10 7 -18 9 -18 3 0 -16 26 -22 39 -9 9 9 11 8 5 -6 -5 -13 -2
-16 12 -10 9 3 15 2 12 -3 -3 -5 0 -15 8 -22 11 -10 14 -10 14 0 0 7 10 2 21
-12 11 -14 18 -19 14 -12 -3 6 -1 12 4 12 6 0 11 -5 11 -11 0 -5 5 -7 10 -4 6
3 10 1 10 -5 0 -6 5 -8 10 -5 6 3 10 1 10 -5 0 -6 5 -8 10 -5 6 3 10 1 10 -4
0 -6 7 -11 15 -11 8 0 17 -11 21 -25 3 -14 10 -23 14 -20 8 5 5 -35 -5 -62 -2
-7 0 -15 6 -19 6 -4 6 -11 -2 -20 -10 -12 -10 -15 2 -12 8 2 13 -3 11 -9 -1
-7 3 -13 9 -13 6 0 9 -9 6 -20 -3 -11 0 -23 5 -27 7 -4 8 -1 3 7 -6 9 -4 11 4
6 7 -5 10 -14 7 -22 -3 -7 0 -16 6 -20 7 -4 8 -3 4 4 -4 7 -2 12 5 12 7 0 9
-8 6 -21 -4 -16 -3 -18 8 -9 8 7 15 7 19 1 4 -5 -1 -14 -10 -19 -14 -8 -12 -9
9 -9 14 0 33 -8 42 -17 19 -19 29 -21 19 -5 -4 7 7 4 23 -6 29 -17 36 -35 20
-51 -3 -4 -2 -15 3 -25 7 -11 7 -20 0 -24 -5 -3 -6 -13 -3 -22 9 -23 8 -66 -1
-81 -4 -7 -3 -12 2 -12 10 0 10 -30 0 -46 -4 -5 -3 -16 2 -24 5 -8 5 -22 -1
-32 -6 -11 -6 -18 0 -18 10 0 9 -19 -2 -37 -5 -7 -4 -13 0 -13 12 0 7 -61 -5
-69 -5 -3 -9 -28 -8 -54 1 -27 -2 -54 -6 -60 -4 -6 -2 -17 4 -24 7 -9 7 -17
-2 -28 -9 -10 -9 -15 -1 -15 13 0 10 -22 -4 -32 -6 -5 -5 -8 2 -8 7 0 10 -7 7
-15 -4 -8 -15 -15 -25 -15 -10 0 -19 -5 -19 -11 0 -6 -9 -9 -20 -6 -11 3 -20
1 -20 -4 0 -9 -54 -40 -67 -39 -5 1 -9 -8 -11 -20 -2 -11 -7 -20 -12 -20 -5 0
-7 8 -5 18 3 9 -1 3 -9 -14 -8 -17 -22 -34 -31 -38 -9 -3 -13 -10 -10 -16 6
-9 -8 -14 -28 -11 -4 1 -3 -7 2 -18 8 -13 8 -20 0 -23 -5 -2 -11 -10 -13 -18
-2 -8 -6 -23 -11 -33 -4 -10 -5 -21 -2 -24 4 -3 2 -14 -3 -24 -6 -10 -6 -20
-2 -23 10 -6 9 -57 -1 -74 -5 -7 -3 -12 3 -12 7 0 10 -6 7 -12 -2 -7 5 -24 17
-37 11 -13 15 -21 8 -17 -11 7 -11 4 -1 -12 7 -12 16 -19 20 -16 4 2 10 -5 14
-16 4 -11 11 -18 16 -15 5 4 9 -1 9 -10 0 -9 -4 -13 -10 -10 -5 3 -10 1 -10
-5 0 -7 8 -9 19 -5 14 4 20 -1 25 -20 4 -14 12 -25 18 -25 9 0 9 3 0 12 -7 7
-12 16 -12 22 0 5 11 -5 24 -23 16 -21 26 -28 29 -19 4 10 6 10 6 1 1 -7 8
-13 17 -13 9 0 12 -5 8 -12 -5 -7 -2 -9 9 -5 8 3 21 -1 27 -8 9 -11 17 -12 31
-4 13 7 19 6 19 -1 0 -6 5 -8 12 -4 18 11 48 12 54 2 3 -4 14 -3 25 2 14 8 19
7 19 -2 0 -8 3 -9 8 -3 7 10 23 16 54 18 10 1 18 8 18 17 0 13 1 13 10 0 7
-11 10 -11 10 -2 0 7 5 10 10 7 6 -3 10 1 10 9 0 14 11 20 32 17 4 0 10 8 13
19 4 11 11 17 17 14 7 -5 9 -1 5 9 -4 10 -2 16 6 14 7 -1 11 4 10 10 -2 7 3
13 11 13 8 0 17 7 20 16 4 10 2 13 -7 7 -6 -4 -4 4 5 17 9 14 22 24 28 22 6
-1 9 2 5 8 -3 6 -11 7 -17 4 -5 -4 -2 5 7 19 9 15 13 32 9 38 -5 9 -2 10 10 6
13 -5 15 -3 8 11 -10 20 -10 32 1 50 5 7 3 12 -3 12 -7 0 -9 8 -5 20 4 11 2
20 -4 20 -6 0 -11 5 -11 11 0 5 6 7 13 3 6 -4 4 2 -5 13 -21 23 -23 43 -6 43
6 0 4 6 -7 13 -12 10 -14 16 -7 21 7 4 16 5 21 2 4 -3 16 3 26 14 10 11 14 20
9 20 -5 1 2 7 16 14 14 8 29 12 35 8 5 -3 4 2 -3 11 -12 14 -11 16 7 12 14 -2
21 1 21 11 0 17 27 19 32 2 3 -7 11 2 18 19 10 22 20 30 33 27 16 -3 17 -1 5
13 -8 11 -8 14 -1 10 7 -4 21 2 33 15 12 13 27 23 33 23 7 1 11 7 9 14 -1 7 2
10 8 6 13 -8 62 30 52 40 -4 5 -1 5 7 0 9 -5 19 -2 28 10 7 11 13 13 13 6 0
-7 4 -10 10 -6 5 3 6 13 3 21 -5 14 -3 15 15 5 17 -9 19 -8 15 9 -4 14 0 20
11 20 10 0 14 -5 10 -11 -4 -8 0 -8 15 0 15 8 21 9 21 1 0 -6 5 -8 10 -5 6 3
10 -1 10 -9 0 -9 7 -16 16 -16 8 0 13 -4 10 -9 -3 -5 2 -15 11 -22 12 -10 14
-10 9 -1 -4 6 -2 12 3 12 6 0 11 -5 11 -11 0 -6 7 -9 15 -5 8 3 15 2 15 -2 0
-4 10 -8 22 -9 11 -1 24 -7 28 -14 6 -8 9 -8 15 0 5 9 10 9 21 0 8 -6 14 -7
14 -2 0 12 53 11 62 -2 4 -5 8 1 8 14 0 24 0 24 16 5 8 -10 13 -13 9 -6 -3 6
1 15 9 18 9 3 14 10 11 14 -3 5 5 6 17 2 15 -4 19 -2 13 7 -6 10 -3 11 14 2
17 -10 20 -9 15 4 -6 13 6 20 29 16 4 0 7 6 7 14 0 8 4 15 9 15 5 0 11 9 14
20 4 14 10 18 23 13 13 -5 16 -3 11 10 -4 10 -2 16 5 14 7 -1 12 6 13 15 0 9
9 24 20 33 11 9 15 14 8 11 -6 -4 -14 -2 -18 4 -3 5 1 10 10 10 10 0 13 5 9
12 -5 7 -2 9 7 6 10 -4 15 1 15 12 0 10 -5 16 -11 12 -5 -3 -4 2 3 11 8 9 12
26 11 39 -2 13 0 29 4 35 5 7 4 13 0 13 -8 0 -13 25 -16 72 -1 9 -4 15 -8 12
-7 -4 -35 56 -31 69 1 4 -5 7 -13 7 -9 0 -18 7 -21 15 -4 8 -10 12 -15 9 -5
-3 -9 2 -9 11 0 9 5 13 10 10 6 -3 10 -1 10 5 0 7 -7 9 -16 6 -11 -4 -29 7
-54 33 -29 32 -40 38 -50 28 -8 -8 -11 -8 -7 -1 4 7 -1 18 -10 25 -14 12 -16
12 -8 0 6 -11 4 -13 -11 -6 -10 4 -32 9 -47 10 -16 2 -31 6 -34 9 -3 3 -14 1
-24 -4 -12 -7 -20 -7 -24 0 -4 7 -12 7 -25 0 -10 -5 -27 -7 -37 -4 -13 4 -14
3 -5 -4 10 -7 2 -11 -28 -16 -33 -5 -41 -10 -36 -23 6 -13 4 -14 -9 -3 -13 11
-16 11 -13 -1 2 -8 -5 -14 -16 -14 -11 0 -21 -7 -24 -15 -2 -8 -17 -26 -32
-40 -14 -14 -24 -32 -22 -39 3 -10 -1 -12 -11 -8 -12 4 -14 2 -10 -10 3 -8 0
-19 -8 -24 -8 -4 -15 -19 -17 -31 -1 -13 -3 -29 -4 -35 -1 -7 -6 -13 -12 -13
-7 0 -7 -3 -1 -8 13 -9 15 -42 3 -42 -6 0 -6 -6 1 -14 9 -11 9 -20 2 -35 -8
-13 -8 -22 -1 -26 6 -4 8 -11 5 -16 -4 -5 -2 -9 4 -9 6 0 8 -6 5 -14 -3 -8 0
-17 7 -22 8 -5 10 -3 4 6 -5 9 -4 11 4 6 8 -6 9 -12 2 -20 -7 -9 -7 -16 0 -23
8 -8 7 -13 -2 -18 -8 -5 -10 -4 -5 3 4 7 2 12 -3 12 -6 0 -11 -5 -11 -11 0 -5
-4 -7 -10 -4 -5 3 -10 -1 -10 -10 0 -12 -5 -15 -16 -11 -14 5 -15 4 -4 -9 11
-13 10 -14 -5 -8 -14 5 -17 3 -12 -10 4 -11 1 -15 -13 -12 -10 2 -21 -3 -24
-12 -4 -9 -13 -13 -22 -9 -15 6 -15 4 -3 -11 8 -9 9 -14 2 -10 -6 4 -15 2 -18
-4 -4 -5 -14 -8 -22 -5 -9 4 -11 2 -7 -6 5 -8 2 -9 -11 -4 -15 5 -16 4 -6 -8
11 -13 9 -14 -13 -10 -15 2 -26 0 -26 -6 0 -6 5 -8 10 -5 6 3 10 1 10 -4 0 -6
-7 -11 -15 -11 -8 0 -15 -4 -15 -10 0 -5 -5 -10 -11 -10 -5 0 -7 5 -3 12 4 7
3 8 -4 4 -7 -4 -12 -14 -12 -22 0 -8 -5 -12 -10 -9 -6 3 -13 -1 -16 -9 -3 -9
-10 -13 -15 -10 -5 3 -12 -2 -15 -11 -4 -9 -13 -14 -20 -11 -7 3 -16 0 -20 -6
-5 -7 -2 -8 6 -3 8 5 11 4 6 -3 -4 -6 -14 -8 -23 -5 -13 5 -15 2 -10 -12 6
-15 5 -16 -8 -5 -9 7 -15 9 -14 4 4 -24 -3 -32 -26 -29 -14 1 -25 -2 -25 -7 0
-5 -5 -6 -10 -3 -8 5 -7 12 2 23 8 11 4 10 -11 -3 -14 -11 -21 -14 -17 -7 5 8
0 12 -13 12 -12 0 -21 4 -21 10 0 5 8 7 18 3 9 -3 14 -3 10 1 -3 4 -12 8 -20
10 -7 1 -19 6 -27 10 -10 6 -12 5 -7 -2 5 -8 2 -10 -8 -6 -9 3 -14 10 -11 14
3 5 -6 7 -20 5 -14 -1 -28 2 -32 8 -4 6 -1 7 8 3 8 -4 5 0 -5 8 -20 16 -26 62
-11 86 6 9 4 11 -6 5 -11 -7 -12 -6 -2 6 9 12 10 18 1 27 -8 8 -8 15 2 27 7 9
8 15 2 15 -12 0 -11 18 2 39 7 11 6 12 -5 6 -11 -7 -12 -6 -2 6 9 12 10 18 1
27 -8 8 -8 15 2 27 7 9 8 15 2 15 -12 0 -11 18 2 39 7 11 6 12 -5 6 -12 -7
-12 -6 -1 7 7 9 9 18 5 21 -9 6 -9 293 1 331 3 14 11 26 17 26 7 0 6 -6 -2
-17 -13 -16 -12 -17 4 -4 10 8 16 20 13 28 -4 11 -1 11 15 2 11 -6 23 -8 27
-5 3 3 1 6 -5 6 -5 0 -10 6 -10 14 0 8 8 13 19 11 10 -2 16 0 13 5 -8 13 37
71 51 66 7 -3 10 3 7 15 -3 10 0 26 7 34 7 9 8 15 2 15 -12 0 -11 18 2 39 7
11 6 12 -5 6 -12 -7 -12 -6 -1 7 8 10 9 19 3 22 -5 4 -8 19 -7 34 3 21 -6 36
-36 64 -22 21 -37 42 -34 47 4 5 1 13 -5 17 -8 4 -9 3 -5 -4 4 -7 3 -12 -3
-12 -5 0 -14 7 -19 16 -8 15 -39 24 -89 27 -7 0 -13 5 -13 11 0 6 -4 5 -9 -3
-6 -9 -11 -10 -15 -2 -5 8 -13 8 -27 1 -11 -6 -24 -8 -29 -5 -5 3 -11 1 -15
-5 -4 -6 -11 -7 -17 -4 -7 4 -8 2 -4 -4 4 -7 2 -12 -4 -12 -6 0 -8 -5 -4 -12
5 -9 2 -9 -9 1 -15 12 -17 11 -17 -5 0 -11 -4 -15 -8 -9 -9 13 -35 19 -28 6 3
-5 0 -11 -7 -14 -17 -6 -49 17 -39 29 4 4 0 3 -9 -4 -13 -10 -19 -9 -30 5 -13
17 -13 17 5 3 18 -14 18 -14 6 7 -13 20 -15 20 -27 5 -11 -15 -12 -16 -13 -1
0 9 -8 23 -17 30 -11 10 -14 10 -9 2 10 -18 -6 -16 -30 3 -10 8 -13 12 -5 8 9
-4 12 -3 7 4 -4 6 -13 9 -21 5 -9 -3 -21 0 -29 6 -7 6 -16 8 -19 4 -4 -3 -7 1
-7 11 0 9 -5 14 -10 11 -11 -7 -63 29 -54 37 3 3 -2 8 -11 11 -8 4 -15 2 -15
-4 0 -6 -5 -7 -11 -4 -6 4 -8 14 -4 22 4 13 3 14 -10 3 -11 -9 -15 -9 -15 -1
0 7 -5 9 -12 5 -8 -5 -9 -2 -4 11 5 15 4 16 -9 5 -8 -7 -15 -8 -15 -4 0 5 -10
15 -21 23 -20 12 -21 11 -15 -4 5 -15 4 -16 -9 -5 -8 7 -12 17 -8 23 4 6 -2 8
-15 5 -12 -4 -25 -1 -29 4 -3 7 -1 8 5 4 7 -4 12 -2 12 3 0 6 -9 11 -20 11
-12 0 -20 7 -20 16 0 13 -3 14 -14 5 -12 -10 -16 -8 -21 10 -6 17 -9 19 -16 8
-7 -11 -9 -9 -9 6 0 17 -2 17 -10 5 -6 -10 -10 -11 -10 -2 0 6 -5 11 -11 10
-6 -2 -14 3 -17 11 -3 10 0 11 9 5 11 -6 11 -4 0 10 -13 15 -13 19 -1 26 9 6
17 5 21 -2 4 -7 9 -6 14 2 4 6 14 9 22 6 8 -4 11 -2 7 5 -4 8 1 9 15 4 12 -3
21 -2 21 3 0 11 18 11 36 -1 6 -3 14 -3 18 0 12 12 36 12 36 0 0 -8 3 -7 9 2
7 10 13 11 30 2 17 -10 21 -9 21 5 0 14 2 15 17 3 14 -12 16 -12 8 0 -6 11 -4
13 8 8 9 -3 18 -3 21 1 6 10 101 6 117 -4 7 -4 9 -3 6 2 -3 6 4 16 15 23 18
11 20 11 14 -4 -5 -15 -4 -16 8 -6 8 7 20 10 26 6 5 -3 10 -2 10 3 0 5 17 7
38 5 60 -6 95 -3 111 10 8 7 12 7 9 2 -4 -6 2 -11 12 -11 10 0 16 5 14 11 -5
11 91 13 102 2 4 -4 14 -1 22 6 13 10 14 9 7 -2 -6 -11 -5 -12 6 -5 20 12 39
14 39 3 0 -6 5 -7 10 -4 6 3 10 2 10 -3 0 -5 10 -12 22 -15 18 -5 19 -8 8 -22
-11 -13 -10 -15 4 -9 11 4 18 -1 24 -16 4 -12 12 -22 17 -22 6 0 9 -4 8 -9 -2
-5 3 -8 10 -6 6 1 11 -3 10 -9 -1 -6 8 -10 20 -10 14 1 21 -4 19 -13 -3 -12 0
-12 12 -2 10 8 16 9 21 1 3 -6 12 -7 18 -3 17 10 47 11 47 1 0 -5 6 -6 13 -1
6 4 20 6 31 4 11 -1 16 2 12 8 -5 7 1 10 16 8 14 -1 23 3 23 13 0 9 8 14 19
12 12 -2 16 1 10 9 -5 9 -2 10 11 5 15 -5 16 -4 5 9 -11 13 -10 14 3 10 8 -4
18 -1 23 6 5 8 3 10 -7 4 -12 -8 -12 -6 0 9 11 13 16 14 23 4 6 -9 7 -5 3 10
-6 21 2 27 28 23 5 -1 6 3 2 9 -3 6 -12 7 -18 3 -9 -5 -9 -3 -1 8 6 8 10 22 9
32 -2 9 1 17 7 17 7 0 7 4 0 13 -7 8 -7 18 -2 27 6 10 3 21 -8 34 -9 11 -11
16 -5 12 9 -5 11 -2 7 8 -3 8 -12 17 -19 20 -9 3 -13 16 -10 35 2 20 0 28 -9
25 -21 -8 -59 42 -54 70 3 14 1 27 -4 28 -5 2 -6 11 -3 21 4 9 12 14 17 11 6
-4 6 2 -1 14 -8 15 -7 23 4 32 8 7 13 16 10 20 -8 13 6 40 17 34 6 -4 5 3 -1
15 -9 15 -9 21 -1 21 7 0 9 8 4 22 -6 21 -5 22 11 8 17 -14 18 -13 8 4 -8 15
-7 23 6 35 9 9 11 12 4 7 -7 -5 -13 -5 -13 -2 0 12 23 51 34 58 8 5 7 8 -1 8
-7 0 -13 5 -13 11 0 5 5 7 10 4 10 -6 14 6 10 39 -1 10 2 16 8 13 5 -4 9 0 9
8 0 8 -4 12 -9 9 -4 -3 -8 -2 -8 3 0 17 57 41 74 31 9 -5 16 -5 16 -1 0 5 8
10 18 11 41 4 57 10 54 21 -3 15 11 14 27 -1 9 -8 12 -9 7 -1 -3 6 6 21 21 33
16 12 22 18 14 14 -9 -4 -12 -3 -7 4 4 6 14 8 23 5 11 -4 14 -3 9 6 -5 8 -3
12 5 10 8 -1 21 -1 29 0 13 1 13 3 1 10 -16 10 -8 41 10 41 8 0 7 -6 -2 -17
-13 -16 -12 -17 3 -5 10 8 16 19 15 25 -1 7 5 11 13 9 12 -3 12 -1 3 9 -10 10
-9 15 5 26 10 9 11 12 2 7 -12 -6 -13 -5 -4 7 19 24 32 75 24 89 -5 7 -4 23 0
35 5 13 5 26 -1 32 -6 6 -11 20 -12 32 -1 11 -5 21 -10 21 -5 0 -7 7 -3 15 3
8 0 14 -7 12 -7 -1 -12 8 -11 20 0 15 -5 20 -17 18 -9 -2 -26 6 -36 17 -10 12
-12 18 -5 14 6 -4 12 -3 12 2 0 5 -11 14 -25 20 -14 6 -25 16 -25 21 0 5 -9 7
-20 4 -15 -4 -19 -2 -14 10 4 12 1 14 -15 10 -13 -3 -21 -1 -21 7 0 7 -8 9
-20 5 -12 -4 -20 -2 -20 6 0 8 -5 7 -17 -2 -9 -8 -19 -12 -22 -10 -20 12 -51
20 -46 11 8 -13 -8 -13 -22 1 -8 8 -13 7 -18 -1z m-2092 -505 c-3 -9 -8 -14
-10 -11 -3 3 -2 9 2 15 9 16 15 13 8 -4z m2077 -2459 c0 -3 -4 -8 -10 -11 -5
-3 -10 -1 -10 4 0 6 5 11 10 11 6 0 10 -2 10 -4z m-148 -108 c-7 -7 -12 -8
-12 -2 0 14 12 26 19 19 2 -3 -1 -11 -7 -17z"/>
<path d="M6411 4387 c-13 -21 -12 -21 5 -5 10 10 16 20 13 22 -3 3 -11 -5 -18
-17z"/>
<path d="M6835 4360 c3 -5 8 -10 11 -10 2 0 4 5 4 10 0 6 -5 10 -11 10 -5 0
-7 -4 -4 -10z"/>
<path d="M1130 3960 c0 -5 5 -10 11 -10 5 0 7 5 4 10 -3 6 -8 10 -11 10 -2 0
-4 -4 -4 -10z"/>
<path d="M3996 3923 c-3 -7 -2 -13 2 -13 4 0 8 -9 8 -20 0 -11 -4 -20 -9 -20
-5 0 -5 -6 0 -12 13 -17 12 -48 -1 -48 -6 0 -5 -4 2 -9 8 -4 14 -12 14 -16 0
-4 -6 -12 -14 -16 -7 -5 -8 -9 -2 -9 14 0 14 -30 0 -30 -6 0 -5 -4 2 -9 8 -4
14 -12 14 -16 0 -4 -6 -12 -14 -16 -8 -6 -9 -12 -3 -16 13 -10 15 -53 3 -53
-5 0 -6 -6 -2 -12 11 -18 12 -48 2 -48 -5 0 -6 -6 -1 -12 10 -17 10 -39 1 -59
-3 -8 -3 -21 2 -29 5 -9 5 -19 -2 -27 -6 -7 -7 -13 -2 -13 5 0 9 -20 9 -45 0
-25 -4 -45 -10 -45 -5 0 -4 -4 3 -9 8 -4 14 -12 14 -16 0 -4 -6 -12 -14 -16
-7 -5 -8 -9 -2 -9 14 0 14 -30 0 -30 -6 0 -5 -4 2 -9 8 -4 14 -12 14 -16 0 -4
-6 -12 -14 -16 -11 -8 -11 -10 0 -18 17 -11 18 -12 4 -37 -6 -12 -7 -26 -2
-34 5 -8 5 -21 0 -30 -5 -9 -5 -22 0 -30 5 -8 4 -22 -1 -32 -5 -10 -6 -18 -1
-18 10 0 9 -30 -2 -48 -4 -6 -3 -12 1 -12 5 0 9 -9 9 -20 0 -11 -4 -20 -9 -20
-5 0 -5 -6 0 -12 13 -17 12 -48 -1 -48 -6 0 -5 -4 2 -9 8 -4 14 -12 14 -16 0
-4 -6 -12 -14 -16 -7 -5 -8 -9 -2 -9 6 0 11 -7 11 -15 0 -8 -4 -15 -9 -15 -4
0 -8 -12 -8 -27 0 -14 -3 -23 -7 -20 -3 4 -13 1 -21 -6 -13 -10 -15 -9 -8 3 4
9 1 8 -7 -2 -8 -10 -22 -18 -31 -18 -9 0 -16 -7 -16 -15 0 -8 -5 -15 -11 -15
-5 0 -7 5 -3 12 4 7 3 8 -5 4 -8 -5 -9 -12 -2 -19 6 -8 1 -18 -17 -31 -14 -11
-22 -13 -17 -6 5 9 4 11 -3 6 -8 -5 -9 -13 -2 -26 7 -14 5 -21 -13 -34 -12 -9
-15 -14 -7 -10 12 7 13 5 3 -7 -9 -12 -10 -18 -1 -27 8 -8 8 -15 -2 -27 -7 -8
-8 -15 -3 -15 8 0 10 -32 3 -50 -1 -3 -2 -8 -2 -11 1 -3 -10 -5 -24 -3 -13 1
-22 -2 -18 -7 3 -5 10 -7 15 -4 5 3 6 -1 2 -10 -5 -14 -8 -14 -15 -3 -7 10
-11 10 -15 1 -2 -7 -14 -13 -24 -13 -11 0 -17 -4 -14 -10 3 -5 -3 -10 -13 -10
-11 0 -22 -7 -25 -15 -4 -8 -15 -12 -26 -10 -14 3 -18 -1 -14 -11 4 -10 0 -12
-11 -8 -10 4 -16 1 -16 -8 0 -9 -9 -14 -22 -14 -15 1 -22 -4 -20 -13 2 -8 -3
-11 -12 -8 -11 4 -13 1 -9 -10 5 -13 3 -14 -16 -4 -17 9 -21 9 -19 -1 2 -8 -6
-13 -18 -12 -13 0 -20 -5 -17 -11 6 -16 -42 -46 -62 -39 -12 5 -14 2 -8 -12 6
-16 5 -17 -9 -6 -14 11 -17 10 -23 -7 -4 -12 -12 -18 -21 -14 -10 4 -12 0 -8
-12 6 -15 4 -16 -16 -5 -15 8 -20 8 -16 1 4 -6 0 -14 -8 -17 -9 -3 -14 -9 -11
-14 2 -4 -7 -6 -20 -4 -14 1 -23 -2 -20 -6 7 -12 -26 -29 -44 -22 -8 3 -11 0
-7 -7 4 -6 4 -11 -1 -12 -4 0 -20 -2 -36 -4 -18 -2 -30 2 -37 14 -5 10 -7 21
-4 23 2 3 -2 11 -11 18 -10 8 -15 9 -15 1 0 -6 5 -11 11 -11 5 0 7 -5 3 -11
-4 -8 -12 -2 -21 15 -7 14 -16 26 -19 26 -3 0 -2 -6 1 -12 4 -7 -1 -4 -9 6 -9
11 -16 15 -16 10 0 -6 -7 -11 -15 -11 -8 0 -15 4 -15 9 0 5 -6 6 -12 1 -17
-10 -68 -11 -74 -1 -3 4 -14 3 -25 -2 -10 -6 -19 -8 -19 -5 0 4 -13 -7 -30
-23 -16 -17 -30 -34 -30 -39 0 -4 -15 -18 -33 -29 -29 -19 -35 -31 -39 -81 -1
-7 -6 -13 -11 -13 -5 0 -4 -7 3 -15 10 -12 10 -15 -1 -15 -12 0 -12 -2 -1 -9
16 -9 15 -20 -1 -40 -9 -12 -9 -13 1 -7 11 7 17 -5 13 -27 -2 -13 26 -37 35
-29 5 4 3 -1 -4 -10 -12 -14 -10 -16 10 -10 21 5 22 4 9 -12 -8 -9 -11 -19 -7
-23 3 -3 6 -1 6 6 0 7 5 9 10 6 6 -4 7 -12 3 -18 -4 -8 -1 -7 9 1 13 10 18 10
24 1 4 -8 3 -9 -4 -5 -7 4 -12 3 -12 -2 0 -5 14 -15 30 -22 17 -7 30 -15 30
-19 0 -4 11 -8 26 -9 14 -1 34 -6 44 -12 13 -7 22 -6 32 4 11 10 19 11 33 4
13 -8 16 -7 11 1 -5 7 4 14 24 17 21 5 29 11 26 21 -6 16 31 33 54 25 8 -3 12
-1 7 3 -4 5 3 20 15 33 13 14 17 22 11 18 -7 -4 -13 -3 -13 3 0 5 9 13 20 16
11 3 20 11 20 16 0 6 -4 7 -10 4 -5 -3 -10 -1 -10 4 0 6 5 11 11 11 7 0 9 10
5 26 -4 14 -3 23 1 21 11 -7 9 35 -2 53 -6 10 -4 12 8 7 10 -3 17 -2 17 4 0 6
4 8 8 5 5 -3 15 5 22 19 7 13 18 21 26 18 8 -3 11 -10 7 -16 -3 -6 -1 -7 6 -3
6 4 9 12 6 17 -4 5 1 12 9 15 9 3 14 9 11 14 -2 4 7 6 20 4 14 -1 23 2 20 6
-7 11 26 29 43 23 7 -3 10 1 6 10 -4 11 2 14 21 11 19 -2 25 2 21 11 -2 7 2
16 10 19 22 9 26 7 18 -6 -4 -7 -3 -8 5 -4 6 4 9 12 6 17 -4 5 1 9 9 9 9 0 16
7 16 16 0 8 5 12 10 9 6 -4 7 -12 3 -18 -4 -7 0 -6 10 2 9 7 15 17 12 21 -2 4
7 6 20 4 14 -1 25 2 25 8 0 6 -7 8 -15 4 -25 -9 -17 8 9 20 18 9 28 9 37 0 9
-8 10 -8 5 2 -6 11 5 17 27 13 4 0 6 4 5 10 -2 6 3 14 11 17 9 3 11 0 6 -8 -5
-9 -4 -11 4 -6 6 4 9 10 7 14 -5 9 20 32 28 25 3 -3 20 5 38 19 18 14 41 24
51 22 14 -2 16 0 7 11 -10 11 -8 13 9 10 12 -2 21 1 21 8 0 8 2 9 8 1 4 -6 17
-10 29 -9 13 1 21 0 19 -3 -12 -12 39 -43 74 -45 22 -1 40 -6 40 -11 0 -5 8
-2 17 5 15 12 16 12 8 -1 -7 -12 -6 -13 6 -4 8 6 22 10 32 9 9 -2 17 1 17 7 0
6 6 8 14 5 8 -3 17 1 20 10 4 8 13 13 21 9 8 -3 15 0 15 7 0 7 15 12 35 13 19
0 35 -3 35 -8 0 -5 -5 -6 -12 -2 -7 4 -8 3 -4 -5 6 -9 11 -9 24 1 12 10 14 10
8 1 -4 -8 -2 -13 4 -13 6 0 8 -6 4 -12 -4 -7 -3 -10 1 -5 5 4 18 -1 29 -10 20
-17 20 -17 6 1 -14 18 -14 18 7 6 12 -8 19 -18 17 -22 -3 -4 4 -8 14 -8 11 0
28 -8 39 -17 10 -10 12 -13 3 -8 -13 9 -13 8 -1 -8 10 -13 17 -15 27 -6 11 9
14 8 14 -5 0 -9 8 -16 20 -16 11 0 20 -4 20 -10 0 -5 -8 -7 -17 -4 -15 5 -15
4 -3 -4 8 -6 17 -9 21 -6 11 6 59 -17 59 -29 0 -5 11 -7 25 -5 13 3 23 2 22
-1 -4 -15 26 -52 38 -47 9 3 24 -8 37 -26 12 -18 17 -28 10 -24 -7 4 -12 2
-12 -3 0 -6 6 -11 13 -11 6 0 4 -5 -6 -11 -14 -8 -16 -14 -6 -25 9 -11 9 -14
-1 -14 -7 0 -10 -7 -6 -15 3 -8 0 -15 -6 -15 -7 0 -7 -5 1 -14 9 -11 9 -20 2
-35 -8 -13 -8 -22 -1 -26 6 -4 8 -11 5 -16 -4 -5 -2 -9 4 -9 6 0 7 -7 4 -17
-4 -11 -3 -14 5 -9 16 10 15 -6 0 -23 -10 -11 -10 -13 0 -7 6 4 12 2 12 -5 0
-6 8 -18 18 -26 11 -10 12 -12 2 -8 -8 4 -6 -1 4 -9 11 -9 22 -16 25 -16 3 0
15 -13 25 -28 l19 -27 -29 25 c-27 22 -27 22 2 -7 18 -17 29 -35 26 -39 -4 -5
1 -2 11 5 14 11 17 11 17 -2 0 -8 -6 -18 -12 -21 -7 -3 -3 -3 10 0 15 4 24 0
28 -10 3 -9 17 -16 30 -16 13 0 24 -4 24 -8 0 -11 7 -12 124 -15 87 -3 99 -1
103 14 3 10 11 15 19 12 8 -3 14 -1 14 5 0 9 46 27 62 24 4 -1 4 6 1 15 -5 12
-2 15 10 10 9 -3 19 -2 22 4 4 5 11 6 17 3 7 -4 8 -2 4 5 -6 9 -12 9 -24 -1
-12 -9 -11 -6 2 10 15 17 22 19 28 10 6 -9 7 -5 3 9 -4 15 -1 23 12 27 11 3
19 16 20 27 1 12 10 31 20 42 10 11 13 17 6 14 -6 -4 -14 -3 -17 2 -3 5 4 11
15 14 17 5 19 9 10 26 -8 14 -8 22 -1 26 8 5 8 11 0 20 -12 15 -10 36 5 48 7
4 7 9 0 15 -12 8 -18 28 -18 60 -1 12 -5 22 -9 22 -4 0 -8 6 -8 14 0 8 -7 17
-16 20 -14 5 -14 9 -3 24 7 9 9 14 5 10 -5 -4 -15 0 -23 10 -8 9 -11 11 -7 3
5 -10 3 -12 -5 -7 -9 6 -9 11 1 24 11 13 11 14 0 8 -8 -5 -23 2 -39 21 -15 15
-32 29 -37 29 -6 1 -18 2 -26 3 -13 1 -13 2 0 12 12 9 11 10 -8 6 -13 -3 -29
1 -37 10 -9 8 -31 15 -50 16 -19 1 -35 4 -35 7 0 4 -7 7 -15 7 -8 0 -12 -4 -9
-8 2 -4 -5 -7 -16 -6 -11 1 -20 5 -20 10 0 5 -6 4 -13 -2 -8 -6 -17 -8 -20 -4
-4 3 -7 1 -7 -5 0 -7 -5 -12 -11 -12 -5 0 -7 6 -3 13 4 6 -2 4 -14 -6 -12 -11
-26 -16 -33 -11 -7 4 -10 3 -6 -3 4 -6 -7 -16 -23 -23 -17 -7 -30 -17 -30 -22
0 -6 -7 -4 -17 3 -15 13 -15 12 -3 -11 12 -23 12 -24 -3 -12 -14 12 -16 11
-12 -9 4 -17 2 -20 -7 -11 -15 15 -41 16 -32 1 4 -8 0 -8 -15 0 -11 7 -21 14
-21 17 0 3 5 2 12 -2 7 -4 8 -3 4 5 -6 9 -11 9 -21 1 -10 -8 -15 -8 -21 1 -4
8 -3 9 4 5 7 -4 12 -2 12 3 0 6 -7 11 -16 11 -8 0 -12 5 -8 11 4 8 -1 9 -16 4
-15 -5 -20 -4 -16 4 4 6 1 11 -6 11 -8 0 -21 9 -31 20 -10 12 -23 17 -32 13
-12 -4 -16 -1 -13 12 2 10 -4 20 -12 22 -12 4 -12 3 -1 -5 8 -6 10 -12 3 -16
-6 -4 -14 -1 -19 6 -12 19 -58 56 -48 39 6 -10 4 -12 -4 -7 -7 5 -10 15 -7 23
3 8 2 11 -3 8 -5 -3 -13 0 -16 6 -4 5 -13 8 -20 5 -17 -6 -57 28 -47 40 4 4
-1 2 -10 -5 -15 -12 -18 -11 -18 3 0 8 -11 18 -25 22 -14 4 -24 9 -21 11 3 3
1 16 -4 28 -6 16 -5 25 3 29 8 4 9 8 1 11 -6 3 -10 23 -8 46 2 27 -1 37 -8 33
-7 -4 -8 -2 -4 5 5 7 -1 20 -15 32 -12 10 -18 19 -13 19 6 0 16 -6 24 -12 20
-17 -17 28 -57 70 -17 19 -36 31 -42 28 -6 -4 -23 6 -38 23 -28 29 -36 72 -18
101 6 9 4 11 -6 5 -11 -7 -12 -6 -2 6 9 12 10 18 1 27 -8 8 -8 15 2 27 10 12
10 15 -1 15 -11 0 -11 2 1 10 10 6 11 10 3 10 -13 0 -13 26 0 48 5 6 4 12 0
12 -5 0 -9 9 -10 20 -1 13 2 18 10 13 9 -5 9 -3 0 8 -10 12 -10 18 -1 27 9 9
9 12 -3 12 -12 0 -12 2 1 10 10 6 11 10 3 10 -13 0 -13 26 0 48 5 6 4 12 0 12
-5 0 -9 9 -10 20 -1 11 2 18 6 16 10 -6 8 25 -3 42 -4 7 -2 19 4 27 8 9 8 15
2 15 -12 0 -11 18 2 39 7 11 6 12 -5 6 -12 -7 -12 -6 -1 7 7 9 9 19 5 21 -10
6 -9 95 1 104 3 3 1 12 -5 20 -9 10 -8 17 1 28 7 9 8 15 2 15 -12 0 -11 18 2
39 7 11 6 12 -5 6 -12 -7 -12 -6 -1 7 7 9 9 19 5 21 -10 6 -9 95 1 104 3 3 1
12 -5 20 -9 10 -8 17 1 28 7 9 8 15 2 15 -12 0 -11 18 2 39 7 10 5 12 -5 6
-11 -6 -12 -5 -2 5 9 10 10 17 2 27 -9 9 -8 17 1 28 7 9 8 15 2 15 -11 0 -11
18 0 35 13 21 -8 33 -54 32 -30 0 -49 -5 -52 -14z m-826 -2138 c-7 -9 -15 -13
-19 -10 -3 3 1 10 9 15 21 14 24 12 10 -5z"/>
<path d="M1190 3921 c0 -5 5 -13 10 -16 6 -3 10 -2 10 4 0 5 -4 13 -10 16 -5
3 -10 2 -10 -4z"/>
<path d="M6475 3370 c3 -5 8 -10 11 -10 2 0 4 5 4 10 0 6 -5 10 -11 10 -5 0
-7 -4 -4 -10z"/>
<path d="M4875 3330 c3 -5 8 -10 11 -10 2 0 4 5 4 10 0 6 -5 10 -11 10 -5 0
-7 -4 -4 -10z"/>
<path d="M2815 3200 c-3 -5 -1 -10 4 -10 6 0 11 5 11 10 0 6 -2 10 -4 10 -3 0
-8 -4 -11 -10z"/>
<path d="M1865 3061 c-3 -5 -2 -12 3 -15 5 -3 9 1 9 9 0 17 -3 19 -12 6z"/>
<path d="M3171 2874 c0 -11 3 -14 6 -6 3 7 2 16 -1 19 -3 4 -6 -2 -5 -13z"/>
<path d="M2876 2852 c-3 -5 1 -9 9 -9 8 0 12 4 9 9 -3 4 -7 8 -9 8 -2 0 -6 -4
-9 -8z"/>
<path d="M5276 2822 c-3 -5 1 -9 9 -9 8 0 12 4 9 9 -3 4 -7 8 -9 8 -2 0 -6 -4
-9 -8z"/>
<path d="M2390 2780 c0 -5 5 -10 11 -10 5 0 7 5 4 10 -3 6 -8 10 -11 10 -2 0
-4 -4 -4 -10z"/>
<path d="M5586 2778 c3 -5 10 -6 15 -3 13 9 11 12 -6 12 -8 0 -12 -4 -9 -9z"/>
<path d="M4210 2679 c0 -5 5 -7 10 -4 6 3 10 8 10 11 0 2 -4 4 -10 4 -5 0 -10
-5 -10 -11z"/>
<path d="M2116 2667 c3 -10 9 -15 12 -12 3 3 0 11 -7 18 -10 9 -11 8 -5 -6z"/>
<path d="M6210 2626 c0 -2 7 -7 16 -10 8 -3 12 -2 9 4 -6 10 -25 14 -25 6z"/>
<path d="M3795 2300 c-3 -5 -1 -10 4 -10 6 0 11 5 11 10 0 6 -2 10 -4 10 -3 0
-8 -4 -11 -10z"/>
<path d="M7256 2227 c3 -10 9 -15 12 -12 3 3 0 11 -7 18 -10 9 -11 8 -5 -6z"/>
<path d="M5210 2186 c0 -2 7 -7 16 -10 8 -3 12 -2 9 4 -6 10 -25 14 -25 6z"/>
<path d="M4548 2123 c7 -3 16 -2 19 1 4 3 -2 6 -13 5 -11 0 -14 -3 -6 -6z"/>
<path d="M7366 2087 c3 -10 9 -15 12 -12 3 3 0 11 -7 18 -10 9 -11 8 -5 -6z"/>
<path d="M2808 2068 c-10 -10 -14 -18 -9 -18 10 0 36 29 30 34 -2 1 -12 -6
-21 -16z"/>
<path d="M1326 1738 c3 -5 10 -6 15 -3 13 9 11 12 -6 12 -8 0 -12 -4 -9 -9z"/>
<path d="M680 1716 c0 -2 7 -7 16 -10 8 -3 12 -2 9 4 -6 10 -25 14 -25 6z"/>
<path d="M733 1675 c0 -8 4 -12 9 -9 5 3 6 10 3 15 -9 13 -12 11 -12 -6z"/>
<path d="M6850 1661 c0 -6 4 -13 10 -16 6 -3 7 1 4 9 -7 18 -14 21 -14 7z"/>
<path d="M1306 1617 c3 -10 9 -15 12 -12 3 3 0 11 -7 18 -10 9 -11 8 -5 -6z"/>
<path d="M6615 1560 c-3 -5 -1 -10 4 -10 6 0 11 5 11 10 0 6 -2 10 -4 10 -3 0
-8 -4 -11 -10z"/>
<path d="M1625 1520 c3 -5 8 -10 11 -10 2 0 4 5 4 10 0 6 -5 10 -11 10 -5 0
-7 -4 -4 -10z"/>
<path d="M1790 1499 c0 -5 5 -7 10 -4 6 3 10 8 10 11 0 2 -4 4 -10 4 -5 0 -10
-5 -10 -11z"/>
</g>
</svg>
